<svg width="56" height="56" viewBox="0 0 56 56" fill="none" xmlns="http://www.w3.org/2000/svg">
<path d="M16.3307 28H39.6641M37.3307 7C42.7884 7 45.5161 7 47.5087 8.25067C48.5482 8.90363 49.4271 9.78253 50.0801 10.822C51.3307 12.8147 51.3307 15.54 51.3307 21C51.3307 26.46 51.3307 29.1853 50.0777 31.178C49.4258 32.2161 48.5486 33.0941 47.5111 33.747C45.5137 35 42.7861 35 37.3307 35H18.6641C13.2064 35 10.4787 35 8.48606 33.747C7.4471 33.0954 6.56825 32.2181 5.91473 31.1803C4.66406 29.183 4.66406 26.4553 4.66406 21C4.66406 15.5447 4.66406 12.8147 5.91473 10.822C6.5677 9.78253 7.44659 8.90363 8.48606 8.25067C10.4787 7 13.2041 7 18.6641 7H37.3307Z" stroke="black" stroke-width="3.5" stroke-linecap="round"/>
<path d="M42 16.334H42.021" stroke="black" stroke-width="4.66667" stroke-linecap="round" stroke-linejoin="round"/>
<path d="M15.8667 42C15.8667 42 17.7333 46.375 14 49M40.1333 42C40.1333 42 38.2667 46.375 42 49M28 42V49" stroke="black" stroke-width="3.5" stroke-linecap="round" stroke-linejoin="round"/>
</svg>
