<svg width="32" height="32" viewBox="0 0 32 32" fill="none" xmlns="http://www.w3.org/2000/svg">
<path d="M7.85742 7.1665H24.1426C25.0329 7.1665 25.887 7.52032 26.5166 8.1499C27.1462 8.77949 27.5 9.63356 27.5 10.5239V21.6665C27.5 22.5569 27.1462 23.4109 26.5166 24.0405C25.887 24.67 25.0329 25.0239 24.1426 25.0239H7.85742C6.96712 25.0239 6.11297 24.67 5.4834 24.0405C4.85381 23.4109 4.5 22.5569 4.5 21.6665V10.5239C4.5 9.63356 4.85381 8.77949 5.4834 8.1499C6.11298 7.52032 6.96705 7.1665 7.85742 7.1665ZM5.21387 21.6665C5.21387 22.3674 5.49265 23.04 5.98828 23.5356C6.4839 24.0312 7.15656 24.3091 7.85742 24.3091H24.1426C24.8434 24.3091 25.5161 24.0312 26.0117 23.5356C26.5074 23.04 26.7861 22.3674 26.7861 21.6665V13.0239H5.21387V21.6665ZM20.2861 19.1665H22.8574C22.9519 19.1666 23.0425 19.2042 23.1094 19.271C23.1764 19.338 23.2139 19.4292 23.2139 19.5239C23.2138 19.6185 23.1763 19.709 23.1094 19.7759C23.0425 19.8428 22.952 19.8803 22.8574 19.8804H20.2861C20.1914 19.8804 20.1002 19.8429 20.0332 19.7759C19.9664 19.709 19.9288 19.6185 19.9287 19.5239C19.9287 19.4292 19.9662 19.338 20.0332 19.271C20.1002 19.2041 20.1914 19.1665 20.2861 19.1665ZM7.85742 7.88037C7.15649 7.88037 6.48391 8.15915 5.98828 8.65479C5.49265 9.15042 5.21387 9.823 5.21387 10.5239V12.3091H26.7861V10.5239C26.7861 9.823 26.5074 9.15042 26.0117 8.65479C25.5161 8.15915 24.8435 7.88037 24.1426 7.88037H7.85742Z" stroke="#E31E24"/>
</svg>
