<svg width="32" height="32" viewBox="0 0 32 32" fill="none" xmlns="http://www.w3.org/2000/svg">
<path d="M11.4092 18.0003H6.24251C5.55796 18.0042 4.90278 18.2789 4.4201 18.7643C3.93742 19.2497 3.66649 19.9064 3.66651 20.591V25.7577C3.66615 26.096 3.73255 26.4312 3.86188 26.7439C3.99121 27.0566 4.18094 27.3407 4.42022 27.58C4.65949 27.8192 4.9436 28.009 5.2563 28.1383C5.56899 28.2676 5.90412 28.334 6.24251 28.3337H11.4092C12.0938 28.3344 12.7508 28.0636 13.2362 27.5808C13.7215 27.0979 13.9957 26.4423 13.9985 25.7577V20.591C13.9989 20.2509 13.9321 19.914 13.8021 19.5997C13.6721 19.2854 13.4814 18.9998 13.2409 18.7593C13.0004 18.5188 12.7148 18.328 12.4005 18.198C12.0862 18.068 11.7493 18.0013 11.4092 18.0017M11.4092 3.66699H6.24251C5.90412 3.66664 5.56899 3.73303 5.2563 3.86237C4.9436 3.9917 4.65949 4.18143 4.42022 4.4207C4.18094 4.65998 3.99121 4.94409 3.86188 5.25679C3.73255 5.56948 3.66615 5.90461 3.66651 6.24299V11.4097C3.66579 12.0943 3.93654 12.7513 4.41941 13.2367C4.90227 13.722 5.55787 13.9962 6.24251 13.999H11.4092C11.7493 13.9993 12.0862 13.9326 12.4005 13.8026C12.7148 13.6726 13.0004 13.4819 13.2409 13.2414C13.4814 13.0009 13.6721 12.7153 13.8021 12.401C13.9321 12.0867 13.9989 11.7498 13.9985 11.4097V6.24299C13.9957 5.55835 13.7215 4.90276 13.2362 4.41989C12.7508 3.93703 12.0938 3.66628 11.4092 3.66699ZM25.7572 3.66699H20.5905C19.9059 3.66628 19.2489 3.93703 18.7635 4.41989C18.2781 4.90276 18.004 5.55835 18.0012 6.24299V11.4097C18.0015 12.0963 18.2744 12.7547 18.76 13.2402C19.2455 13.7257 19.9039 13.9986 20.5905 13.999H25.7572C26.4418 13.9962 27.0974 13.722 27.5803 13.2367C28.0631 12.7513 28.3339 12.0943 28.3332 11.4097V6.24299C28.3335 5.90461 28.2671 5.56948 28.1378 5.25679C28.0085 4.94409 27.8187 4.65998 27.5795 4.4207C27.3402 4.18143 27.0561 3.9917 26.7434 3.86237C26.4307 3.73303 26.0956 3.66664 25.7572 3.66699ZM23.1665 18.0003C21.7962 18.0003 20.4821 18.5447 19.5131 19.5136C18.5442 20.4825 17.9998 21.7967 17.9998 23.167C17.9998 24.5373 18.5442 25.8514 19.5131 26.8204C20.4821 27.7893 21.7962 28.3337 23.1665 28.3337C24.5368 28.3337 25.851 27.7893 26.8199 26.8204C27.7888 25.8514 28.3332 24.5373 28.3332 23.167C28.3332 21.7967 27.7888 20.4825 26.8199 19.5136C25.851 18.5447 24.5368 18.0003 23.1665 18.0003Z" stroke="#E31E24" stroke-width="1.33333" stroke-linecap="round" stroke-linejoin="round"/>
</svg>
