<svg width="64" height="64" viewBox="0 0 64 64" fill="none" xmlns="http://www.w3.org/2000/svg">
<path d="M23.9998 55.339H15.9998C15.0751 55.3784 14.1518 55.235 13.2825 54.9171C12.4133 54.5992 11.6153 54.113 10.9342 53.4864C10.253 52.8597 9.70216 52.1049 9.31305 51.2652C8.92394 50.4254 8.70423 49.5171 8.6665 48.5924V15.419C8.70423 14.4943 8.92394 13.586 9.31305 12.7463C9.70216 11.9065 10.253 11.1517 10.9342 10.5251C11.6153 9.89842 12.4133 9.41224 13.2825 9.09434C14.1518 8.77643 15.0751 8.63304 15.9998 8.67238H23.9998C24.5303 8.67238 25.039 8.88309 25.414 9.25816C25.7891 9.63324 25.9998 10.1419 25.9998 10.6724C25.9998 11.2028 25.7891 11.7115 25.414 12.0866C25.039 12.4617 24.5303 12.6724 23.9998 12.6724H15.9998C15.208 12.6035 14.4201 12.8421 13.7995 13.3386C13.1788 13.8351 12.7731 14.5514 12.6665 15.339V48.5924C12.7731 49.38 13.1788 50.0963 13.7995 50.5928C14.4201 51.0893 15.208 51.3279 15.9998 51.259H23.9998C24.5303 51.259 25.039 51.4698 25.414 51.8448C25.7891 52.2199 25.9998 52.7286 25.9998 53.259C25.9998 53.7895 25.7891 54.2982 25.414 54.6733C25.039 55.0483 24.5303 55.259 23.9998 55.259V55.339ZM42.6665 44.6724C42.4037 44.6736 42.1434 44.6224 41.9007 44.5216C41.658 44.4209 41.4378 44.2727 41.2532 44.0857C40.8786 43.7107 40.6683 43.2024 40.6683 42.6724C40.6683 42.1424 40.8786 41.634 41.2532 41.259L50.5065 32.0057L41.2532 22.7524C41.0567 22.5693 40.8991 22.3485 40.7898 22.1031C40.6804 21.8578 40.6217 21.593 40.6169 21.3244C40.6122 21.0559 40.6616 20.7891 40.7622 20.5401C40.8628 20.2911 41.0125 20.0649 41.2024 19.8749C41.3923 19.685 41.6185 19.5353 41.8676 19.4347C42.1166 19.3341 42.3834 19.2847 42.6519 19.2895C42.9204 19.2942 43.1853 19.353 43.4306 19.4623C43.6759 19.5716 43.8967 19.7292 44.0798 19.9257L54.7465 30.5924C55.121 30.9674 55.3314 31.4757 55.3314 32.0057C55.3314 32.5357 55.121 33.044 54.7465 33.419L44.0798 44.0857C43.8952 44.2727 43.675 44.4209 43.4324 44.5216C43.1897 44.6224 42.9293 44.6736 42.6665 44.6724Z" fill="#E31E24"/>
<path d="M53.3333 34H24C23.4696 34 22.9609 33.7893 22.5858 33.4142C22.2107 33.0391 22 32.5304 22 32C22 31.4696 22.2107 30.9609 22.5858 30.5858C22.9609 30.2107 23.4696 30 24 30H53.3333C53.8638 30 54.3725 30.2107 54.7475 30.5858C55.1226 30.9609 55.3333 31.4696 55.3333 32C55.3333 32.5304 55.1226 33.0391 54.7475 33.4142C54.3725 33.7893 53.8638 34 53.3333 34Z" fill="#E31E24"/>
</svg>
