<svg width="108" height="48" viewBox="0 0 108 48" fill="none" xmlns="http://www.w3.org/2000/svg">
<g clip-path="url(#clip0_1348_20611)">
<path d="M31.7628 21.0798L27.0056 34.2684H29.1294L30.3399 30.7111H35.3626L36.5731 34.2684H38.7394L33.9822 21.0798H31.7522H31.7628ZM30.8602 29.0652L32.8247 23.2779H32.8778L34.8423 29.0652H30.8602ZM44.9726 24.5522C44.3569 24.5326 43.7474 24.6803 43.2089 24.9794C42.6704 25.2786 42.2231 25.7181 41.9144 26.2512H41.8719V24.6584H39.9605V37.454H41.9356V32.6862H41.9781C42.2728 33.2237 42.7131 33.6672 43.2484 33.9658C43.7837 34.2645 44.3923 34.4062 45.0045 34.3746C47.415 34.3746 49.0184 32.4526 49.0184 29.4687C49.0184 26.4848 47.415 24.5522 44.9726 24.5522ZM44.4417 32.6968C42.9444 32.6968 41.925 31.4013 41.925 29.4581C41.925 27.5467 42.9444 26.2406 44.4523 26.2406C45.9814 26.2406 46.9902 27.5148 46.9902 29.4581C46.9902 31.4332 45.9814 32.6968 44.4417 32.6968ZM55.549 24.5522C54.9331 24.5315 54.3231 24.6786 53.7844 24.9779C53.2457 25.2772 52.7985 25.7173 52.4907 26.2512H52.4589V24.6584H50.5475V37.454H52.512V32.6862H52.5651C52.8598 33.2237 53.3 33.6672 53.8353 33.9658C54.3706 34.2645 54.9793 34.4062 55.5914 34.3746C58.0019 34.3746 59.6054 32.4526 59.6054 29.4687C59.6054 26.4848 57.9913 24.5522 55.549 24.5522ZM55.0286 32.6968C53.5208 32.6968 52.512 31.4013 52.512 29.4581C52.512 27.5467 53.5208 26.2406 55.0286 26.2406C56.5684 26.2406 57.5772 27.5148 57.5772 29.4581C57.5772 31.4332 56.5684 32.6968 55.0286 32.6968ZM74.6841 30.4775C74.6841 32.9411 72.7196 34.4914 69.5977 34.4914C66.6775 34.4914 64.7024 32.9835 64.575 30.5943H66.5925C66.7412 31.9004 68.0048 32.7605 69.7463 32.7605C71.4029 32.7605 72.6134 31.911 72.6134 30.7217C72.6134 29.7023 71.8807 29.0864 70.1711 28.6723L68.4721 28.2475C66.0404 27.6741 64.9148 26.5485 64.9148 24.7009C64.9148 22.4284 66.9005 20.8675 69.7145 20.8675C72.5072 20.8675 74.4186 22.4284 74.4823 24.7009H72.486C72.3692 23.3841 71.2754 22.5877 69.6932 22.5877C68.1004 22.5877 67.0173 23.3947 67.0173 24.5628C67.0173 25.4973 67.7075 26.0494 69.4065 26.4742L70.8613 26.8246C73.5691 27.4617 74.6841 28.5449 74.6841 30.4775ZM78.9528 24.6584H80.7793V26.2193H78.9528V31.5288C78.9528 32.3464 79.3139 32.7287 80.1209 32.7287C80.3333 32.7287 80.5456 32.7074 80.7686 32.6862V34.2365C80.4076 34.3003 80.0466 34.3321 79.6749 34.3215C77.7317 34.3215 76.9671 33.5994 76.9671 31.7305V26.2193H75.576V24.6584H76.9671V22.386H78.9528V24.6584ZM86.386 24.5416C83.6251 24.5416 81.8411 26.4423 81.8411 29.4687C81.8411 32.4951 83.6039 34.3958 86.3966 34.3958C89.1894 34.3958 90.9627 32.4951 90.9627 29.4687C90.9627 26.4423 89.1787 24.5416 86.3966 24.5416H86.386ZM86.386 32.7605C84.7932 32.7605 83.8375 31.55 83.8375 29.4687C83.8375 27.398 84.7932 26.1663 86.386 26.1663C88.0001 26.1663 88.9451 27.3874 88.9451 29.4581C88.9451 31.55 87.9894 32.7605 86.3966 32.7605H86.386ZM96.8243 24.5522C97.0473 24.5522 97.2809 24.584 97.5039 24.6265V26.4742C97.2151 26.386 96.9137 26.3465 96.6119 26.3574C96.326 26.3464 96.041 26.3973 95.7766 26.5066C95.5122 26.616 95.2745 26.7812 95.0799 26.991C94.8852 27.2008 94.7382 27.4501 94.6489 27.722C94.5596 27.9938 94.5301 28.2818 94.5625 28.5661V34.2684H92.5874V24.6584H94.4669V26.2937H94.5094C94.636 25.7814 94.9354 25.3285 95.3571 25.0112C95.7788 24.694 96.297 24.5319 96.8243 24.5522ZM106.7 29.9572V29.2776C106.7 26.368 105.033 24.5416 102.378 24.5416C99.6701 24.5416 97.918 26.4954 97.918 29.5112C97.918 32.5163 99.6595 34.3958 102.463 34.3958C104.629 34.3958 106.328 33.1959 106.604 31.4438H104.725C104.551 31.8821 104.24 32.2519 103.838 32.4972C103.435 32.7425 102.964 32.8499 102.495 32.803C102.14 32.8133 101.788 32.7485 101.46 32.6129C101.132 32.4774 100.837 32.2741 100.593 32.0164C100.35 31.7588 100.163 31.4525 100.046 31.1178C99.9292 30.783 99.8843 30.4273 99.9144 30.074V29.9572H106.71H106.7ZM100.116 27.6423C100.299 27.1948 100.61 26.8116 101.011 26.5413C101.412 26.271 101.884 26.1257 102.367 26.1238C102.847 26.1166 103.318 26.2575 103.715 26.5273C104.112 26.7971 104.416 27.1827 104.587 27.6316C104.693 27.929 104.746 28.2475 104.725 28.5661H99.925C99.925 28.2475 99.9887 27.929 100.116 27.6316V27.6423ZM33.5999 14.305C33.6532 13.8934 33.6141 13.475 33.4853 13.0803C33.3566 12.6857 33.1415 12.3247 32.8557 12.0236C32.5699 11.7225 32.2205 11.489 31.8331 11.3399C31.4457 11.1908 31.0299 11.13 30.616 11.1619H28.3223V17.4907H30.616C32.4955 17.4907 33.5893 16.3226 33.5893 14.305H33.5999ZM29.3099 16.5987V12.0539H30.4992C30.7927 12.039 31.0858 12.0887 31.358 12.1996C31.6301 12.3105 31.8746 12.4798 32.0741 12.6955C32.2736 12.9113 32.4234 13.1682 32.5127 13.4481C32.602 13.7281 32.6288 14.0242 32.5911 14.3157C32.6362 14.6094 32.6148 14.9095 32.5285 15.1939C32.4422 15.4782 32.2932 15.7396 32.0925 15.9587C31.8917 16.1778 31.6443 16.349 31.3686 16.4598C31.0928 16.5706 30.7957 16.618 30.4992 16.5987H29.3099ZM38.6332 13.36C38.3139 13.0065 37.8911 12.7628 37.4251 12.6637C36.9591 12.5647 36.4738 12.6153 36.0383 12.8083C35.6027 13.0014 35.2393 13.327 34.9997 13.7388C34.7602 14.1505 34.6568 14.6274 34.7042 15.1015C34.6747 15.4163 34.7112 15.7339 34.8114 16.0339C34.9116 16.3339 35.0733 16.6096 35.2862 16.8435C35.4991 17.0774 35.7585 17.2643 36.0478 17.3921C36.337 17.52 36.6498 17.5862 36.966 17.5863C37.2824 17.588 37.5956 17.523 37.8851 17.3955C38.1747 17.2681 38.4341 17.081 38.6465 16.8466C38.8589 16.6121 39.0195 16.3355 39.1179 16.0348C39.2162 15.7341 39.2501 15.4161 39.2172 15.1015C39.2464 14.7865 39.2096 14.4689 39.109 14.1691C39.0084 13.8692 38.8464 13.5936 38.6332 13.36ZM36.966 16.758C36.1378 16.758 35.6812 16.1527 35.6812 15.1015C35.6812 14.0714 36.1378 13.4555 36.9554 13.4555C37.7837 13.4555 38.2509 14.0714 38.2509 15.1015C38.2509 16.1421 37.7837 16.7474 36.966 16.7474V16.758ZM41.2136 17.5013L39.8968 12.7228H40.8525L41.702 16.3651H41.7764L42.7639 12.7122H43.6665L44.6541 16.3651H44.7284L45.5779 12.7122H46.5336L45.2169 17.4907H44.2293L43.2418 13.9759H43.1674L42.1905 17.4907H41.2136V17.5013ZM50.7493 14.6342C50.7493 13.8697 50.4201 13.4874 49.7192 13.4874C49.4808 13.4749 49.2448 13.5408 49.0473 13.675C48.8498 13.8092 48.7017 14.0044 48.6255 14.2307C48.5724 14.3794 48.5618 14.5493 48.5724 14.6979V17.4907H47.6273V12.7122H48.5405V13.4768H48.6149C48.7349 13.2053 48.9363 12.9777 49.1911 12.8256C49.446 12.6734 49.7419 12.6041 50.0378 12.6273C50.3858 12.6055 50.7312 12.7001 51.0196 12.8962C51.308 13.0923 51.5229 13.3787 51.6306 13.7104C51.705 13.9334 51.7262 14.167 51.6943 14.4006V17.4907H50.7493V14.6342ZM54.1473 17.5013H53.1916V10.8327H54.1473V17.4801V17.5013ZM59.3824 13.36C59.063 13.0065 58.6402 12.7628 58.1743 12.6637C57.7083 12.5647 57.2229 12.6153 56.7874 12.8083C56.3519 13.0014 55.9884 13.327 55.7489 13.7388C55.5093 14.1505 55.4059 14.6274 55.4534 15.1015C55.4239 15.4154 55.4601 15.7321 55.5597 16.0314C55.6593 16.3306 55.8201 16.6059 56.0318 16.8396C56.2436 17.0733 56.5016 17.2604 56.7896 17.3889C57.0776 17.5175 57.3892 17.5847 57.7046 17.5863C58.0209 17.588 58.3341 17.523 58.6237 17.3955C58.9132 17.2681 59.1727 17.081 59.3851 16.8466C59.5975 16.6121 59.7581 16.3355 59.8564 16.0348C59.9548 15.7341 59.9886 15.4161 59.9558 15.1015C59.9857 14.7873 59.9503 14.4704 59.8516 14.1706C59.7529 13.8709 59.5931 13.5949 59.3824 13.36ZM57.7046 16.758C56.8869 16.758 56.4303 16.1527 56.4303 15.1015C56.4303 14.0714 56.8869 13.4555 57.7046 13.4555C58.5222 13.4555 58.9895 14.0714 58.9895 15.1015C58.9895 16.1421 58.5222 16.7474 57.7152 16.7474L57.7046 16.758ZM64.9678 17.5013V14.2307C64.9678 13.2219 64.2989 12.6166 63.0989 12.6166C62.0158 12.6166 61.2406 13.1476 61.1451 13.9652H62.0583C62.1645 13.6361 62.5255 13.4343 63.0458 13.4343C63.6936 13.4343 64.0334 13.721 64.0334 14.2307V14.6448L62.7379 14.7192C61.6017 14.7829 60.9539 15.282 60.9539 16.1421C60.9543 16.344 60.9971 16.5436 61.0795 16.728C61.1618 16.9124 61.2819 17.0775 61.432 17.2126C61.5821 17.3477 61.7589 17.4498 61.9509 17.5123C62.1429 17.5749 62.3459 17.5964 62.5468 17.5756C62.8317 17.5904 63.1155 17.5294 63.3691 17.3989C63.6228 17.2683 63.8374 17.0728 63.9909 16.8323H64.0653V17.5013H64.9678ZM64.0334 15.7386C64.0214 15.8897 63.9796 16.037 63.9103 16.1719C63.8411 16.3068 63.7457 16.4266 63.6299 16.5244C63.5237 16.6199 63.3856 16.6943 63.237 16.7367C63.0989 16.7792 62.9397 16.7898 62.791 16.7792C62.2813 16.7792 61.9096 16.5244 61.9096 16.0996C61.9096 15.6749 62.207 15.4625 62.8653 15.4094L64.0334 15.3351V15.7386ZM68.196 17.5756C68.4981 17.5847 68.7971 17.5114 69.0608 17.3637C69.3246 17.2159 69.5432 16.9992 69.6932 16.7367H69.7676V17.4907H70.6702V10.8433H69.7251V13.4874H69.6614C69.5237 13.2206 69.3126 12.9989 69.0529 12.8483C68.7932 12.6978 68.4958 12.6248 68.196 12.6379C66.9854 12.6379 66.2103 13.5936 66.2103 15.1121C66.2103 16.6306 66.9748 17.5863 68.196 17.5863V17.5756ZM68.4614 13.4874C69.2472 13.4874 69.7463 14.1139 69.7463 15.1121C69.7463 16.1102 69.2579 16.7261 68.4614 16.7261C67.665 16.7261 67.1872 16.1209 67.1872 15.1015C67.1872 14.0927 67.665 13.4874 68.4614 13.4874ZM76.8291 17.5863C77.1463 17.5895 77.4607 17.5256 77.7515 17.3988C78.0423 17.272 78.3031 17.0852 78.5166 16.8506C78.7302 16.6159 78.8918 16.3388 78.9907 16.0374C79.0897 15.7359 79.1238 15.417 79.0909 15.1015C79.1259 14.7084 79.0579 14.3129 78.8936 13.9541C78.7293 13.5953 78.4744 13.2854 78.154 13.055C77.8336 12.8246 77.4588 12.6816 77.0663 12.6402C76.6738 12.5987 76.2773 12.6601 75.9158 12.8184C75.4814 13.0103 75.1183 13.3341 74.8781 13.7438C74.638 14.1536 74.5329 14.6286 74.5779 15.1015C74.5484 15.4154 74.5846 15.7321 74.6842 16.0314C74.7838 16.3306 74.9445 16.6059 75.1563 16.8396C75.368 17.0733 75.6261 17.2604 75.9141 17.3889C76.2021 17.5175 76.5137 17.5847 76.8291 17.5863ZM75.5548 15.1015C75.5548 14.0714 76.0114 13.4555 76.8291 13.4555C77.6573 13.4555 78.1139 14.0714 78.1139 15.1015C78.1139 16.1421 77.6573 16.7474 76.8397 16.7474C76.0114 16.7474 75.5548 16.1421 75.5548 15.1015ZM81.9792 13.5617C81.8313 13.6212 81.698 13.7117 81.5881 13.8271C81.4782 13.9425 81.3943 14.0801 81.3421 14.2307C81.2996 14.3794 81.2783 14.5493 81.2996 14.6979V17.4907H80.3545V12.7122H81.2571V13.4768H81.3314C81.4515 13.2053 81.6528 12.9777 81.9077 12.8256C82.1626 12.6734 82.4584 12.6041 82.7544 12.6273C83.1041 12.6031 83.452 12.6965 83.7425 12.8928C84.0331 13.0891 84.2497 13.3769 84.3578 13.7104C84.4321 13.9334 84.4534 14.167 84.4109 14.4006V17.4907H83.4658V14.6342C83.4658 13.8697 83.1366 13.4874 82.4358 13.4874C82.2871 13.4874 82.1172 13.5086 81.9792 13.5617ZM88.8071 13.5299H88.0425V12.7335H88.8071V11.5229H89.7522V12.7335H90.7822V13.5299H89.7522V15.9828C89.7522 16.4925 89.9645 16.7049 90.4211 16.7049C90.5486 16.7049 90.6654 16.7049 90.7822 16.6837V17.4694C90.6141 17.5018 90.4436 17.5195 90.2725 17.5225C89.2212 17.5225 88.8071 17.1509 88.8071 16.227V13.5299ZM93.0121 17.4907H92.0671V10.8433H93.0121V13.4874H93.0865C93.2121 13.2133 93.4192 12.9847 93.6796 12.8327C93.9399 12.6807 94.2408 12.6126 94.5412 12.6379C94.7729 12.6247 95.0046 12.663 95.2198 12.7501C95.4349 12.8371 95.6281 12.9707 95.7854 13.1413C95.9428 13.3118 96.0604 13.5151 96.1299 13.7365C96.1993 13.9579 96.2189 14.192 96.1872 14.4218V17.5013H95.2421V14.6555C95.2421 13.8909 94.8811 13.498 94.2227 13.498C94.0588 13.4822 93.8935 13.5036 93.739 13.5606C93.5846 13.6176 93.445 13.7087 93.3307 13.8272C93.2168 13.9422 93.1293 14.0806 93.0743 14.2328C93.0193 14.385 92.9981 14.5473 93.0121 14.7086V17.5013V17.4907ZM97.4827 16.0465C97.6231 16.5 97.9074 16.8955 98.2924 17.1733C98.6774 17.451 99.1424 17.596 99.617 17.5863C100.069 17.6348 100.524 17.5232 100.902 17.271C101.281 17.0187 101.559 16.6418 101.688 16.2058H100.785C100.675 16.4049 100.508 16.5667 100.306 16.6707C100.104 16.7747 99.8748 16.8162 99.6489 16.7898C99.3838 16.7917 99.1248 16.7109 98.9078 16.5587C98.6908 16.4064 98.5267 16.1903 98.4383 15.9403C98.3795 15.7699 98.3577 15.5889 98.3746 15.4094V15.3669H101.751V15.0377C101.751 13.5299 100.944 12.6273 99.617 12.6273C99.3012 12.6246 98.9885 12.6897 98.6999 12.8182C98.4114 12.9466 98.1538 13.1355 97.9444 13.372C97.7351 13.6085 97.5789 13.8872 97.4864 14.1892C97.3939 14.4912 97.3673 14.8095 97.4083 15.1227C97.3659 15.4413 97.3871 15.7492 97.4827 16.0465ZM98.4596 14.1882C98.5202 14.0371 98.6102 13.8994 98.7244 13.7833C98.8386 13.6672 98.9747 13.5748 99.1248 13.5116C99.2749 13.4484 99.4361 13.4156 99.5989 13.4151C99.7618 13.4146 99.9231 13.4464 100.074 13.5086C100.299 13.6019 100.489 13.7641 100.617 13.972C100.745 14.1799 100.804 14.4228 100.785 14.6661H98.3746C98.3746 14.4962 98.3959 14.3475 98.4596 14.1882ZM20.2096 27.8653C19.8342 29.0864 19.268 30.2404 18.5318 31.2845C17.5442 32.7605 16.5142 34.2047 14.8683 34.2259C13.2755 34.2684 12.7445 33.2915 10.9075 33.2915C9.05981 33.2915 8.48639 34.2047 6.95728 34.2684C5.3857 34.3215 4.19639 32.6862 3.16636 31.2208C1.11693 28.2475 -0.475888 22.8001 1.66911 19.1154C2.16177 18.2292 2.87549 17.4856 3.74079 16.9572C4.60609 16.4287 5.59349 16.1332 6.60686 16.0996C8.16782 16.0678 9.6226 17.1615 10.5889 17.1615C11.534 17.1615 13.3286 15.8554 15.1869 16.0571C16.0555 16.085 16.9058 16.3143 17.6706 16.7271C18.4354 17.1399 19.0937 17.7249 19.5937 18.4358C18.81 18.9181 18.1607 19.5904 17.7059 20.3905C17.2511 21.1905 17.0056 22.0923 16.9921 23.0125C16.9933 24.0478 17.2989 25.0598 17.871 25.9227C18.4431 26.7856 19.2564 27.4611 20.2096 27.8653ZM12.3835 15.3351C11.757 15.6218 11.088 15.7704 10.3978 15.7598C10.3123 14.406 10.7667 13.0735 11.6614 12.0539C12.5704 11.0171 13.8368 10.3611 15.2081 10.2168C15.3144 11.613 14.8725 12.9956 13.9763 14.0714C13.5516 14.6024 12.9994 15.0377 12.3835 15.3351Z" fill="white"/>
</g>
<defs>
<clipPath id="clip0_1348_20611">
<rect width="107.25" height="48" fill="white"/>
</clipPath>
</defs>
</svg>
