<svg width="127" height="129" viewBox="0 0 127 129" fill="none" xmlns="http://www.w3.org/2000/svg">
<path d="M126.562 4.30318C126.562 1.92616 124.635 -0.000793665 122.258 -0.000793457C119.881 -0.000793249 117.954 1.92616 117.954 4.30318C117.954 6.68019 119.881 8.60715 122.258 8.60715C124.635 8.60715 126.562 6.68019 126.562 4.30318ZM-0.00177002 123.738L8.06817 128.397L8.06817 119.079L-0.00177002 123.738ZM122.258 4.30318L121.451 4.30318L121.451 85.0026L122.258 85.0026L123.065 85.0026L123.065 4.30318L122.258 4.30318ZM83.5221 123.738L83.5221 122.931L7.26118 122.931L7.26118 123.738L7.26118 124.545L83.5221 124.545L83.5221 123.738ZM122.258 85.0026L121.451 85.0026C121.451 105.95 104.47 122.931 83.5221 122.931L83.5221 123.738L83.5221 124.545C105.361 124.545 123.065 106.841 123.065 85.0026L122.258 85.0026Z" fill="#E31E24"/>
</svg>
