<svg width="56" height="56" viewBox="0 0 56 56" fill="none" xmlns="http://www.w3.org/2000/svg">
<path d="M18.375 0.964844C17.8486 0.964844 17.5 1.31348 17.5 1.83984V7.00098H14.0854C13.2104 7.00098 12.4243 7.43848 11.8979 8.13916L9.1875 12.251C7.875 12.5142 7 13.5635 7 14.876C7 16.0142 7.70068 16.978 8.75 17.3267V49.001H6.125C5.59863 49.001 5.25 49.3496 5.25 49.876C5.25 50.4023 5.59863 50.751 6.125 50.751H53.375C53.9014 50.751 54.25 50.4023 54.25 49.876C54.25 49.3496 53.9014 49.001 53.375 49.001H50.75V28.001H51.625C52.1514 28.001 52.5 27.6523 52.5 27.126C52.5 26.5996 52.1514 26.251 51.625 26.251H43.75V24.501C43.75 23.5371 42.9639 22.751 42 22.751H38.5V17.3267C39.5493 16.978 40.25 16.0142 40.25 14.876C40.25 13.5635 39.375 12.5142 38.1479 12.3364L35.4375 8.22461C34.9111 7.43848 34.0396 7.00098 33.1646 7.00098H22.75V6.21484C22.75 5.68848 22.4014 5.33984 21.875 5.33984C21.3486 5.33984 21 5.68848 21 6.21484V7.00098H19.25V1.83984C19.25 1.31348 18.9014 0.964844 18.375 0.964844ZM14 8.75098H17.5V10.5864C17.5 11.1128 17.8486 11.4614 18.375 11.4614C18.9014 11.4614 19.25 11.1128 19.25 10.5864V8.75098H21V10.5864C21 11.1128 21.3486 11.4614 21.875 11.4614C22.4014 11.4614 22.75 11.1128 22.75 10.5864V8.75098H33.1646C33.4243 8.75098 33.6875 8.92529 33.8618 9.10303L35.9604 12.251H11.2896L13.2993 9.10303C13.4736 8.83984 13.7368 8.75098 14 8.75098ZM9.625 14.001H37.625C38.1514 14.001 38.5 14.3496 38.5 14.876C38.5 15.4023 38.1514 15.751 37.625 15.751H9.625C9.09863 15.751 8.75 15.4023 8.75 14.876C8.75 14.3496 9.09863 14.001 9.625 14.001ZM10.5 17.501H36.75V49.001H22.75V43.751C22.75 42.7871 21.9639 42.001 21 42.001H15.75C14.7861 42.001 14 42.7871 14 43.751V49.001H10.5V33.251H27.125C27.6514 33.251 28 32.9023 28 32.376C28 31.8496 27.6514 31.501 27.125 31.501H10.5V17.501ZM14.875 19.251C14.3486 19.251 14 19.5996 14 20.126C14 20.6523 14.3486 21.001 14.875 21.001H16.625C17.1514 21.001 17.5 20.6523 17.5 20.126C17.5 19.5996 17.1514 19.251 16.625 19.251H14.875ZM20.125 19.251C19.5986 19.251 19.25 19.5996 19.25 20.126C19.25 20.6523 19.5986 21.001 20.125 21.001H21.875C22.4014 21.001 22.75 20.6523 22.75 20.126C22.75 19.5996 22.4014 19.251 21.875 19.251H20.125ZM25.375 19.251C24.8486 19.251 24.5 19.5996 24.5 20.126C24.5 20.6523 24.8486 21.001 25.375 21.001H27.125C27.6514 21.001 28 20.6523 28 20.126C28 19.5996 27.6514 19.251 27.125 19.251H25.375ZM30.625 19.251C30.0986 19.251 29.75 19.5996 29.75 20.126C29.75 20.6523 30.0986 21.001 30.625 21.001H32.375C32.9014 21.001 33.25 20.6523 33.25 20.126C33.25 19.5996 32.9014 19.251 32.375 19.251H30.625ZM14.875 22.751C14.3486 22.751 14 23.0996 14 23.626C14 24.1523 14.3486 24.501 14.875 24.501H16.625C17.1514 24.501 17.5 24.1523 17.5 23.626C17.5 23.0996 17.1514 22.751 16.625 22.751H14.875ZM20.125 22.751C19.5986 22.751 19.25 23.0996 19.25 23.626C19.25 24.1523 19.5986 24.501 20.125 24.501H21.875C22.4014 24.501 22.75 24.1523 22.75 23.626C22.75 23.0996 22.4014 22.751 21.875 22.751H20.125ZM25.375 22.751C24.8486 22.751 24.5 23.0996 24.5 23.626C24.5 24.1523 24.8486 24.501 25.375 24.501H27.125C27.6514 24.501 28 24.1523 28 23.626C28 23.0996 27.6514 22.751 27.125 22.751H25.375ZM30.625 22.751C30.0986 22.751 29.75 23.0996 29.75 23.626C29.75 24.1523 30.0986 24.501 30.625 24.501H32.375C32.9014 24.501 33.25 24.1523 33.25 23.626C33.25 23.0996 32.9014 22.751 32.375 22.751H30.625ZM38.5 24.501H42V27.126C42 27.6523 42.3486 28.001 42.875 28.001H49V38.501H40.25C39.7236 38.501 39.375 38.8496 39.375 39.376C39.375 39.9023 39.7236 40.251 40.25 40.251H49V49.001H38.5V24.501ZM14.875 26.251C14.3486 26.251 14 26.5996 14 27.126C14 27.6523 14.3486 28.001 14.875 28.001H16.625C17.1514 28.001 17.5 27.6523 17.5 27.126C17.5 26.5996 17.1514 26.251 16.625 26.251H14.875ZM20.125 26.251C19.5986 26.251 19.25 26.5996 19.25 27.126C19.25 27.6523 19.5986 28.001 20.125 28.001H21.875C22.4014 28.001 22.75 27.6523 22.75 27.126C22.75 26.5996 22.4014 26.251 21.875 26.251H20.125ZM25.375 26.251C24.8486 26.251 24.5 26.5996 24.5 27.126C24.5 27.6523 24.8486 28.001 25.375 28.001H27.125C27.6514 28.001 28 27.6523 28 27.126C28 26.5996 27.6514 26.251 27.125 26.251H25.375ZM30.625 26.251C30.0986 26.251 29.75 26.5996 29.75 27.126C29.75 27.6523 30.0986 28.001 30.625 28.001H32.375C32.9014 28.001 33.25 27.6523 33.25 27.126C33.25 26.5996 32.9014 26.251 32.375 26.251H30.625ZM42 29.751C41.4736 29.751 41.125 30.0996 41.125 30.626C41.125 31.1523 41.4736 31.501 42 31.501H43.75C44.2764 31.501 44.625 31.1523 44.625 30.626C44.625 30.0996 44.2764 29.751 43.75 29.751H42ZM30.625 31.501C30.0986 31.501 29.75 31.8496 29.75 32.376C29.75 32.9023 30.0986 33.251 30.625 33.251H34.125C34.6514 33.251 35 32.9023 35 32.376C35 31.8496 34.6514 31.501 34.125 31.501H30.625ZM42 33.251C41.4736 33.251 41.125 33.5996 41.125 34.126C41.125 34.6523 41.4736 35.001 42 35.001H43.75C44.2764 35.001 44.625 34.6523 44.625 34.126C44.625 33.5996 44.2764 33.251 43.75 33.251H42ZM14.875 36.751C14.3486 36.751 14 37.0996 14 37.626C14 38.1523 14.3486 38.501 14.875 38.501H16.625C17.1514 38.501 17.5 38.1523 17.5 37.626C17.5 37.0996 17.1514 36.751 16.625 36.751H14.875ZM20.125 36.751C19.5986 36.751 19.25 37.0996 19.25 37.626C19.25 38.1523 19.5986 38.501 20.125 38.501H21.875C22.4014 38.501 22.75 38.1523 22.75 37.626C22.75 37.0996 22.4014 36.751 21.875 36.751H20.125ZM25.375 36.751C24.8486 36.751 24.5 37.0996 24.5 37.626C24.5 38.1523 24.8486 38.501 25.375 38.501H27.125C27.6514 38.501 28 38.1523 28 37.626C28 37.0996 27.6514 36.751 27.125 36.751H25.375ZM30.625 36.751C30.0986 36.751 29.75 37.0996 29.75 37.626C29.75 38.1523 30.0986 38.501 30.625 38.501H32.375C32.9014 38.501 33.25 38.1523 33.25 37.626C33.25 37.0996 32.9014 36.751 32.375 36.751H30.625ZM25.375 40.251C24.8486 40.251 24.5 40.5996 24.5 41.126C24.5 41.6523 24.8486 42.001 25.375 42.001H27.125C27.6514 42.001 28 41.6523 28 41.126C28 40.5996 27.6514 40.251 27.125 40.251H25.375ZM30.625 40.251C30.0986 40.251 29.75 40.5996 29.75 41.126C29.75 41.6523 30.0986 42.001 30.625 42.001H32.375C32.9014 42.001 33.25 41.6523 33.25 41.126C33.25 40.5996 32.9014 40.251 32.375 40.251H30.625ZM15.75 43.751H21V49.001H15.75V43.751ZM25.375 43.751C24.8486 43.751 24.5 44.0996 24.5 44.626C24.5 45.1523 24.8486 45.501 25.375 45.501H27.125C27.6514 45.501 28 45.1523 28 44.626C28 44.0996 27.6514 43.751 27.125 43.751H25.375ZM30.625 43.751C30.0986 43.751 29.75 44.0996 29.75 44.626C29.75 45.1523 30.0986 45.501 30.625 45.501H32.375C32.9014 45.501 33.25 45.1523 33.25 44.626C33.25 44.0996 32.9014 43.751 32.375 43.751H30.625ZM43.75 43.751C43.2236 43.751 42.875 44.0996 42.875 44.626C42.875 45.1523 43.2236 45.501 43.75 45.501H45.5C46.0264 45.501 46.375 45.1523 46.375 44.626C46.375 44.0996 46.0264 43.751 45.5 43.751H43.75Z" fill="black"/>
</svg>
