<svg width="56" height="56" viewBox="0 0 56 56" fill="none" xmlns="http://www.w3.org/2000/svg">
<path d="M51.9646 0.00227415C51.7766 -0.00646821 51.5843 0.0110165 51.4051 0.0372436C50.6532 0.142152 50.0063 0.509331 49.5517 1.19123L49.5167 1.26117L49.4817 1.29614L39.9001 19.3054C38.8204 18.9032 37.7495 18.6672 36.7529 18.641C35.6776 18.6147 34.6634 18.7809 33.7455 19.1655C31.9752 19.9042 30.6376 21.3511 29.759 23.187C29.7196 23.2438 29.6847 23.3007 29.6541 23.3618C29.6497 23.3706 29.6584 23.3881 29.6541 23.3968C29.641 23.4187 29.6278 23.4449 29.6191 23.4668C29.606 23.5105 29.5929 23.5585 29.5841 23.6066C28.9765 25.1234 28.2771 26.4872 27.486 27.6981C27.4772 27.7112 27.4597 27.7199 27.451 27.733C27.3505 27.8204 27.2674 27.9297 27.2062 28.0478C27.2018 28.0565 27.2106 28.074 27.2062 28.0827C27.1669 28.1395 27.1319 28.1964 27.1013 28.2576C24.4305 32.0823 20.9511 34.386 17.6596 35.811C13.1747 37.7518 8.88223 37.9572 7.93806 37.8742C7.48783 37.8304 7.05508 38.0578 6.84089 38.4555C6.63108 38.8533 6.67479 39.3429 6.95892 39.6926C19.7096 55.4288 38.4664 55.9883 38.4664 55.9883C38.6893 55.9927 38.9079 55.9315 39.0958 55.8135C39.0958 55.8135 41.4125 54.3448 44.2014 50.8478C46.2951 48.2207 48.6818 44.4222 50.7406 39.168C50.7537 39.1549 50.7625 39.1462 50.7756 39.1331C51.0335 38.8926 51.1646 38.5429 51.1253 38.1889C51.1253 38.1758 51.1253 38.167 51.1253 38.1539C51.6673 36.6896 52.1919 35.1509 52.664 33.468C52.6814 33.3981 52.6945 33.3281 52.6989 33.2582C52.6989 33.2451 52.6989 33.2363 52.6989 33.2232C54.1895 29.3766 52.5284 25.1409 48.9572 23.2919L55.8811 4.0937V4.05873L55.9161 4.02376C56.1434 3.2282 55.8811 2.46325 55.4615 1.85565C55.0637 1.28303 54.4824 0.832798 53.783 0.526815V0.491846C53.7611 0.483104 53.7349 0.500589 53.713 0.491846C53.6999 0.487475 53.6912 0.461248 53.6781 0.456877C53.1317 0.198977 52.5328 0.02413 51.9646 0.00227415ZM51.8247 2.34523C52.0782 2.30589 52.4104 2.30589 52.7689 2.4851L52.8038 2.52007H52.8388C53.2016 2.66432 53.5032 2.90911 53.6431 3.11455C53.783 3.32 53.7436 3.44239 53.748 3.42928L46.929 22.3477C46.1072 21.9762 45.5389 21.7139 44.3762 21.1937C43.5107 20.8047 42.6889 20.4288 41.9633 20.1097L51.4051 2.45013C51.3963 2.45888 51.5712 2.38457 51.8247 2.34523ZM4.47609 8.98942C2.01511 8.98942 0 11.0045 0 13.4655C0 15.9265 2.01511 17.9416 4.47609 17.9416C6.93706 17.9416 8.95217 15.9265 8.95217 13.4655C8.95217 11.0045 6.93706 8.98942 4.47609 8.98942ZM4.47609 11.2275C5.72624 11.2275 6.71413 12.2153 6.71413 13.4655C6.71413 14.7157 5.72624 15.7035 4.47609 15.7035C3.22593 15.7035 2.23804 14.7157 2.23804 13.4655C2.23804 12.2153 3.22593 11.2275 4.47609 11.2275ZM14.5473 12.3465C13.3102 12.3465 12.3092 13.3475 12.3092 14.5845C12.3092 15.8216 13.3102 16.8226 14.5473 16.8226C15.7843 16.8226 16.7853 15.8216 16.7853 14.5845C16.7853 13.3475 15.7843 12.3465 14.5473 12.3465ZM12.8687 20.1796C9.48108 20.1796 6.71413 22.9466 6.71413 26.3342C6.71413 29.7219 9.48108 32.4889 12.8687 32.4889C16.2564 32.4889 19.0234 29.7219 19.0234 26.3342C19.0234 22.9466 16.2564 20.1796 12.8687 20.1796ZM36.7179 20.879C37.496 20.9009 38.3483 21.0582 39.3056 21.4385C39.3275 21.4516 39.3537 21.4648 39.3756 21.4735C39.6291 21.8713 40.1056 22.068 40.5645 21.9631C40.6913 22.0155 40.6782 22.0112 40.8093 22.068C41.5655 22.3958 42.5184 22.798 43.467 23.222C44.857 23.8427 45.7356 24.223 46.5443 24.5858C46.5662 24.612 46.588 24.6339 46.6142 24.6557C46.8547 24.9879 47.2568 25.1628 47.6633 25.1103C47.6764 25.1103 47.6852 25.1103 47.6983 25.1103C50.3735 26.3342 51.5537 29.2498 50.6357 32.0692C50.1942 32.0561 49.8577 32.078 49.0271 31.8944C48.4064 31.7589 47.8032 31.5403 47.3486 31.2649C46.894 30.9896 46.6317 30.7185 46.5093 30.3557C46.4132 30.041 46.1815 29.7875 45.8755 29.6607C45.5739 29.5296 45.2286 29.5427 44.9357 29.6913C44.5598 29.8793 43.6112 29.8093 42.7676 29.3766C42.348 29.1624 41.972 28.8608 41.7185 28.6073C41.465 28.3537 41.3951 28.1133 41.4038 28.1527C41.3426 27.8248 41.1415 27.5407 40.8487 27.379C40.5602 27.2172 40.2105 27.1954 39.9001 27.3134C39.8695 27.3265 39.498 27.3615 39.0608 27.2784C38.6237 27.1954 38.1167 27.0162 37.6271 26.7889C37.1375 26.5616 36.6873 26.2862 36.4032 26.0545C36.119 25.8228 36.0928 25.5824 36.1234 25.8796C36.0491 25.2895 35.5289 24.8568 34.9345 24.9005C33.8111 25.0054 32.7576 24.1793 32.1369 23.6416C32.7926 22.5357 33.6056 21.6527 34.6197 21.2287C35.2404 20.9708 35.9398 20.8572 36.7179 20.879ZM12.8687 22.4177C15.0456 22.4177 16.7853 24.1574 16.7853 26.3342C16.7853 28.5111 15.0456 30.2508 12.8687 30.2508C10.6919 30.2508 8.95217 28.5111 8.95217 26.3342C8.95217 24.1574 10.6919 22.4177 12.8687 22.4177ZM31.1228 25.7398C31.9009 26.2993 32.9805 26.8806 34.27 26.9987C34.4755 27.3003 34.6984 27.5451 34.9694 27.768C35.4546 28.1701 36.0535 28.5242 36.6829 28.8171C37.3124 29.1099 37.9724 29.3547 38.6412 29.4815C38.9865 29.5471 39.3406 29.4159 39.6903 29.4116C39.8564 29.6651 39.9307 30.0017 40.1449 30.2159C40.5995 30.6705 41.1415 31.0551 41.7535 31.3698C42.6627 31.8376 43.7555 31.9993 44.8308 31.8594C45.198 32.4102 45.6395 32.8735 46.1596 33.1883C46.9246 33.6472 47.7595 33.927 48.5376 34.0975C49.084 34.2155 49.5823 34.2679 50.0412 34.3073C49.7309 35.3126 49.3943 36.2568 49.0621 37.1748C48.66 37.1617 48.166 37.1398 47.6284 37.0349C46.4044 36.7989 45.2461 36.2568 44.7609 35.3214C44.4986 34.8318 43.9172 34.6089 43.3971 34.7968C42.8419 34.9936 41.8365 34.9105 40.9842 34.5171C40.1318 34.1237 39.4848 33.4418 39.3406 32.9435C39.2488 32.6419 39.0302 32.3927 38.7417 32.2616C38.4576 32.1261 38.1298 32.1217 37.8369 32.2441C37.5659 32.3577 36.5081 32.3271 35.6338 31.9294C34.7596 31.5316 34.1957 30.8628 34.1302 30.4956C34.0733 30.1853 33.8897 29.9186 33.6231 29.7525C33.3565 29.5864 33.033 29.5383 32.7314 29.6214C31.6736 29.9055 30.8474 29.5296 30.1786 29.0269C29.9469 28.8564 29.7765 28.6685 29.6191 28.5024C30.1611 27.6412 30.6638 26.7277 31.1228 25.7398ZM28.3252 30.3557C28.4913 30.5087 28.6487 30.6573 28.8498 30.8103C29.6759 31.431 30.9479 31.8725 32.3817 31.7895C32.9019 32.7643 33.7455 33.5117 34.7246 33.9576C35.6907 34.3991 36.7223 34.5389 37.732 34.4122C38.2915 35.3258 39.0696 36.0995 40.04 36.5453C41.076 37.0218 42.2387 37.1442 43.3621 36.965C44.4068 38.2719 45.893 38.9844 47.2087 39.238C47.5584 39.3035 47.9037 39.3472 48.2228 39.3778C46.3607 43.8758 44.2757 47.1673 42.4529 49.449C40.1187 52.3734 38.5407 53.4793 38.1866 53.7153C37.7888 53.6978 34.8733 53.4924 30.7731 52.3515C31.1097 52.1329 31.4725 51.9056 31.8571 51.6171C33.7236 50.2184 36.1671 47.9366 38.5363 44.4134C38.7855 44.0506 38.8029 43.5785 38.5756 43.2026C38.3483 42.8223 37.9243 42.6125 37.4872 42.665C37.1594 42.6999 36.8665 42.8792 36.6829 43.1545C34.4624 46.4592 32.1762 48.5748 30.4933 49.8337C28.8935 51.0314 27.9668 51.403 27.8706 51.4423C25.3528 50.5549 22.564 49.3398 19.7228 47.6306C20.1336 47.4951 20.5708 47.3159 21.0516 47.1061C23.176 46.1794 26.0173 44.4484 28.9197 41.1963C29.2694 40.8466 29.3481 40.3089 29.1164 39.8762C28.8804 39.439 28.3908 39.2074 27.9056 39.3079C27.6477 39.3516 27.4117 39.4915 27.2412 39.6926C24.5485 42.7043 22.0264 44.2342 20.1774 45.0429C18.3283 45.8516 17.2749 45.9171 17.2749 45.9171C17.2268 45.9259 17.1787 45.939 17.135 45.9521C14.8139 44.3173 12.4972 42.3284 10.316 39.9374C12.4447 39.7713 15.1855 39.3385 18.5688 37.8742C21.9083 36.4273 25.4709 34.0669 28.3252 30.3557Z" fill="black"/>
</svg>
