<svg width="33" height="47" viewBox="0 0 33 47" fill="none" xmlns="http://www.w3.org/2000/svg">
<path d="M17.5 9.33398L10.5 19.834H15.1667V26.834L22.1667 16.334H17.5V9.33398Z" fill="black"/>
<path fill-rule="evenodd" clip-rule="evenodd" d="M32.5613 17.8185C32.207 20.823 30.9993 23.6632 29.0811 26.0027C27.9588 27.3747 25.1063 31.29 24.4996 33.8333H8.16628C7.55961 31.2877 4.70361 27.3712 3.58127 25.9992C1.66392 23.6586 0.457417 20.8177 0.104608 17.8127C-0.243102 14.8141 0.2802 11.7787 1.61194 9.06968C2.95546 6.33943 5.04519 4.04582 7.63894 2.45468C10.2543 0.846434 13.265 -0.00340336 16.3353 1.02434e-05C19.4129 1.02434e-05 22.4276 0.851677 25.0316 2.45818C27.6247 4.04997 29.7136 6.34397 31.0563 9.07434C32.3874 11.784 32.9099 14.8197 32.5613 17.8185ZM22.8464 31.5H9.81828C9.32127 30.3532 8.65744 29.204 8.03911 28.2275C7.22516 26.9444 6.34023 25.7078 5.38844 24.5233C3.75313 22.5279 2.72395 20.1055 2.42277 17.5432C2.12647 14.9895 2.57201 12.4046 3.70611 10.0975C4.85581 7.76265 6.64381 5.80151 8.86277 4.44151C11.1101 3.05987 13.6972 2.32999 16.3353 2.33334C18.9836 2.33334 21.5736 3.06718 23.8078 4.44501C26.0259 5.80535 27.813 7.76646 28.9621 10.101C30.0956 12.4087 30.5404 14.994 30.2431 17.5478C29.9408 20.1096 28.9109 22.5311 27.2751 24.5257C26.3217 25.7086 25.4371 26.9454 24.6256 28.2298C24.0073 29.2063 23.3434 30.3532 22.8464 31.5Z" fill="black"/>
<path d="M8.16406 37.3327C8.16406 37.0233 8.28698 36.7265 8.50577 36.5077C8.72456 36.2889 9.02131 36.166 9.33073 36.166H23.3307C23.6401 36.166 23.9369 36.2889 24.1557 36.5077C24.3745 36.7265 24.4974 37.0233 24.4974 37.3327C24.4974 37.6421 24.3745 37.9388 24.1557 38.1576C23.9369 38.3764 23.6401 38.4993 23.3307 38.4993H9.33073C9.02131 38.4993 8.72456 38.3764 8.50577 38.1576C8.28698 37.9388 8.16406 37.6421 8.16406 37.3327Z" fill="black"/>
<path fill-rule="evenodd" clip-rule="evenodd" d="M8.16406 40.834H24.4974V44.334C24.4974 44.9528 24.2516 45.5463 23.814 45.9839C23.3764 46.4215 22.7829 46.6673 22.1641 46.6673H10.4974C9.87856 46.6673 9.28507 46.4215 8.84748 45.9839C8.4099 45.5463 8.16406 44.9528 8.16406 44.334V40.834ZM10.4974 43.1673H22.1641V44.334H10.4974V43.1673Z" fill="black"/>
</svg>
