<svg width="32" height="32" viewBox="0 0 32 32" fill="none" xmlns="http://www.w3.org/2000/svg">
<path d="M11.4092 17.9998H6.24251C5.55796 18.0037 4.90278 18.2784 4.4201 18.7638C3.93742 19.2492 3.66649 19.906 3.66651 20.5905V25.7572C3.66615 26.0956 3.73255 26.4307 3.86188 26.7434C3.99121 27.0561 4.18094 27.3402 4.42022 27.5795C4.65949 27.8187 4.9436 28.0085 5.2563 28.1378C5.56899 28.2671 5.90412 28.3335 6.24251 28.3332H11.4092C12.0938 28.3339 12.7508 28.0631 13.2362 27.5803C13.7215 27.0974 13.9957 26.4418 13.9985 25.7572V20.5905C13.9989 20.2504 13.9321 19.9135 13.8021 19.5992C13.6721 19.2849 13.4814 18.9993 13.2409 18.7588C13.0004 18.5183 12.7148 18.3276 12.4005 18.1976C12.0862 18.0676 11.7493 18.0008 11.4092 18.0012M11.4092 3.66651H6.24251C5.90412 3.66615 5.56899 3.73255 5.2563 3.86188C4.9436 3.99121 4.65949 4.18094 4.42022 4.42022C4.18094 4.65949 3.99121 4.9436 3.86188 5.2563C3.73255 5.56899 3.66615 5.90412 3.66651 6.24251V11.4092C3.66579 12.0938 3.93654 12.7508 4.41941 13.2362C4.90227 13.7215 5.55787 13.9957 6.24251 13.9985H11.4092C11.7493 13.9989 12.0862 13.9321 12.4005 13.8021C12.7148 13.6721 13.0004 13.4814 13.2409 13.2409C13.4814 13.0004 13.6721 12.7148 13.8021 12.4005C13.9321 12.0862 13.9989 11.7493 13.9985 11.4092V6.24251C13.9957 5.55787 13.7215 4.90227 13.2362 4.41941C12.7508 3.93654 12.0938 3.66579 11.4092 3.66651ZM25.7572 3.66651H20.5905C19.9059 3.66579 19.2489 3.93654 18.7635 4.41941C18.2781 4.90227 18.004 5.55787 18.0012 6.24251V11.4092C18.0015 12.0958 18.2744 12.7542 18.76 13.2397C19.2455 13.7252 19.9039 13.9982 20.5905 13.9985H25.7572C26.4418 13.9957 27.0974 13.7215 27.5803 13.2362C28.0631 12.7508 28.3339 12.0938 28.3332 11.4092V6.24251C28.3335 5.90412 28.2671 5.56899 28.1378 5.2563C28.0085 4.9436 27.8187 4.65949 27.5795 4.42022C27.3402 4.18094 27.0561 3.99121 26.7434 3.86188C26.4307 3.73255 26.0956 3.66615 25.7572 3.66651ZM23.1665 17.9998C21.7962 17.9998 20.4821 18.5442 19.5131 19.5131C18.5442 20.4821 17.9998 21.7962 17.9998 23.1665C17.9998 24.5368 18.5442 25.851 19.5131 26.8199C20.4821 27.7888 21.7962 28.3332 23.1665 28.3332C24.5368 28.3332 25.851 27.7888 26.8199 26.8199C27.7888 25.851 28.3332 24.5368 28.3332 23.1665C28.3332 21.7962 27.7888 20.4821 26.8199 19.5131C25.851 18.5442 24.5368 17.9998 23.1665 17.9998Z" stroke="black" stroke-width="1.33333" stroke-linecap="round" stroke-linejoin="round"/>
</svg>
