<svg width="16" height="16" viewBox="0 0 16 16" fill="none" xmlns="http://www.w3.org/2000/svg">
<path d="M2.6665 14.0002H13.3332M3.77717 8.79156C3.49291 9.07645 3.33324 9.46244 3.33317 9.86489V12.0002H5.48184C5.8845 12.0002 6.2705 11.8402 6.55517 11.5549L12.8885 5.21822C13.1727 4.93329 13.3322 4.5473 13.3322 4.14489C13.3322 3.74248 13.1727 3.35649 12.8885 3.07156L12.2632 2.44489C12.1221 2.30379 11.9547 2.19187 11.7704 2.11554C11.5861 2.0392 11.3885 1.99994 11.189 2C10.9895 2.00006 10.792 2.03944 10.6078 2.1159C10.4235 2.19235 10.2561 2.30437 10.1152 2.44556L3.77717 8.79156Z" stroke="#E31E24" stroke-linecap="round" stroke-linejoin="round"/>
</svg>
