<svg width="22" height="22" viewBox="0 0 22 22" fill="none" xmlns="http://www.w3.org/2000/svg">
<path d="M4.58301 4.58398H16.4997C17.229 4.58398 17.9285 4.87372 18.4442 5.38944C18.9599 5.90517 19.2497 6.60464 19.2497 7.33398V15.584C19.2497 16.3133 18.9599 17.0128 18.4442 17.5285C17.9285 18.0443 17.229 18.334 16.4997 18.334H4.58301C3.85366 18.334 3.15419 18.0443 2.63846 17.5285C2.12274 17.0128 1.83301 16.3133 1.83301 15.584V7.33398C1.83301 6.60464 2.12274 5.90517 2.63846 5.38944C3.15419 4.87372 3.85366 4.58398 4.58301 4.58398ZM4.58301 5.50065C4.12467 5.50065 3.72134 5.65648 3.40967 5.93148L10.5413 10.5423L17.673 5.93148C17.3613 5.65648 16.958 5.50065 16.4997 5.50065H4.58301ZM10.5413 11.6515L2.86884 6.67398C2.79551 6.87565 2.74967 7.10482 2.74967 7.33398V15.584C2.74967 16.0702 2.94283 16.5365 3.28665 16.8803C3.63046 17.2242 4.09678 17.4173 4.58301 17.4173H16.4997C16.9859 17.4173 17.4522 17.2242 17.796 16.8803C18.1399 16.5365 18.333 16.0702 18.333 15.584V7.33398C18.333 7.10482 18.2872 6.87565 18.2138 6.67398L10.5413 11.6515Z" fill="#E3000F"/>
</svg>
