<svg width="24" height="24" viewBox="0 0 24 24" fill="none" xmlns="http://www.w3.org/2000/svg">
<g clip-path="url(#clip0_1348_25521)">
<path d="M22 12.498C22 6.97805 17.52 2.49805 12 2.49805C6.48 2.49805 2 6.97805 2 12.498C2 18.018 6.48 22.498 12 22.498C17.52 22.498 22 18.018 22 12.498Z" fill="white"/>
<path d="M21.5 11.498C21.5 6.25405 17.244 1.99805 12 1.99805C6.756 1.99805 2.5 6.25405 2.5 11.498C2.5 16.742 6.756 20.998 12 20.998C17.244 20.998 21.5 16.742 21.5 11.498Z" fill="#E31F1E"/>
<path d="M13 11.498C13 10.946 12.552 10.498 12 10.498C11.448 10.498 11 10.946 11 11.498C11 12.05 11.448 12.498 12 12.498C12.552 12.498 13 12.05 13 11.498Z" fill="white"/>
<path d="M12.5 4.49805C12.5 4.22205 12.276 3.99805 12 3.99805C11.724 3.99805 11.5 4.22205 11.5 4.49805C11.5 4.77405 11.724 4.99805 12 4.99805C12.276 4.99805 12.5 4.77405 12.5 4.49805Z" fill="white"/>
<path d="M12.5 18.498C12.5 18.222 12.276 17.998 12 17.998C11.724 17.998 11.5 18.222 11.5 18.498C11.5 18.774 11.724 18.998 12 18.998C12.276 18.998 12.5 18.774 12.5 18.498Z" fill="white"/>
<path d="M19.5 11.498C19.5 11.222 19.276 10.998 19 10.998C18.724 10.998 18.5 11.222 18.5 11.498C18.5 11.774 18.724 11.998 19 11.998C19.276 11.998 19.5 11.774 19.5 11.498Z" fill="white"/>
<path d="M5.5 11.498C5.5 11.222 5.276 10.998 5 10.998C4.724 10.998 4.5 11.222 4.5 11.498C4.5 11.774 4.724 11.998 5 11.998C5.276 11.998 5.5 11.774 5.5 11.498Z" fill="white"/>
<path d="M16.8541 6.64467C16.6586 6.44917 16.3426 6.44917 16.1466 6.64467L11.6466 11.1447C11.4511 11.3402 11.4511 11.6562 11.6466 11.8522L14.1466 14.3522C14.2446 14.4497 14.3726 14.4982 14.5006 14.4982C14.6286 14.4982 14.7566 14.4497 14.8541 14.3522C15.0496 14.1562 15.0496 13.8402 14.8541 13.6447L12.7076 11.4982L16.8541 7.35217C17.0491 7.15617 17.0491 6.84017 16.8541 6.64467Z" fill="white"/>
<path fill-rule="evenodd" clip-rule="evenodd" d="M2 11.5C2 5.98 6.4795 1.5 12 1.5C17.52 1.5 22 5.98 22 11.5C22 17.0205 17.52 21.5 12 21.5C6.4795 21.5 2 17.0205 2 11.5ZM21 11.5C21 6.5325 16.9675 2.5 12 2.5C7.032 2.5 3 6.5325 3 11.5C3 16.468 7.032 20.5 12 20.5C16.9675 20.5 21 16.468 21 11.5Z" fill="white"/>
<path fill-rule="evenodd" clip-rule="evenodd" d="M0.81363 8.75831C0.54813 8.68081 0.39613 8.40281 0.47313 8.13831C1.39413 4.97881 3.57963 2.35781 6.44363 0.859807C6.68813 0.731807 6.99013 0.826307 7.11813 1.07131C7.24613 1.31581 7.15163 1.61781 6.90663 1.74581C4.28013 3.11981 2.27763 5.52381 1.43363 8.41781C1.35613 8.68281 1.07813 8.83481 0.81363 8.75831Z" fill="white"/>
<path fill-rule="evenodd" clip-rule="evenodd" d="M16.8774 22.9297C16.7494 22.6852 16.8439 22.3832 17.0889 22.2552C19.7154 20.8812 21.7184 18.4772 22.5624 15.5832C22.6399 15.3177 22.9179 15.1657 23.1824 15.2427C23.4479 15.3202 23.5999 15.5982 23.5229 15.8627C22.6014 19.0222 20.4164 21.6432 17.5524 23.1412C17.3074 23.2687 17.0054 23.1742 16.8774 22.9297Z" fill="white"/>
</g>
<defs>
<clipPath id="clip0_1348_25521">
<rect width="24" height="24" fill="white"/>
</clipPath>
</defs>
</svg>
