<svg width="22" height="21" viewBox="0 0 22 21" fill="none" xmlns="http://www.w3.org/2000/svg">
<path d="M10.876 0C11.3383 -1.6407e-08 11.755 0.279913 11.9297 0.708008L14.3369 6.6084L20.6992 7.08008C21.1602 7.11424 21.5546 7.4236 21.6973 7.86328C21.8398 8.30278 21.7024 8.78474 21.3496 9.08301L16.4736 13.2002L17.999 19.3867C18.1098 19.8356 17.9382 20.307 17.5645 20.5791C17.1904 20.851 16.688 20.8697 16.2949 20.626L10.876 17.2656L5.45703 20.626C5.06398 20.8695 4.56244 20.8511 4.18848 20.5791C3.81482 20.307 3.64226 19.8355 3.75293 19.3867L5.27832 13.2002L0.40332 9.08301C0.0505513 8.78476 -0.0868092 8.30274 0.0556641 7.86328C0.198281 7.42365 0.592805 7.1143 1.05371 7.08008L7.41504 6.6084L9.82324 0.708008L9.89941 0.554688C10.1023 0.214459 10.4716 0.000232615 10.876 0Z" fill="#E31E24"/>
</svg>
