<svg width="56" height="56" viewBox="0 0 56 56" fill="none" xmlns="http://www.w3.org/2000/svg">
<path d="M29.6782 2.24023C29.4672 2.24023 29.2561 2.25206 29.0504 2.27305C28.8447 2.2941 28.6394 2.32393 28.4401 2.36492C28.2408 2.40598 28.0435 2.45809 27.8516 2.51805C25.9263 3.12033 24.4001 4.64666 23.7982 6.57148V6.57367C23.6782 6.95802 23.5954 7.35838 23.5532 7.77023V7.77242C23.5322 7.97801 23.5204 8.18717 23.5204 8.39805V8.40023C23.5205 8.61131 23.5322 8.82009 23.5532 9.02586V9.02805C23.5743 9.23379 23.6041 9.43678 23.6451 9.63617V9.63836C23.6862 9.83773 23.7382 10.0326 23.7982 10.2246V10.2268C23.8583 10.4188 23.9281 10.6077 24.006 10.7912V10.7934C24.084 10.9769 24.1716 11.1553 24.2663 11.3293V11.3315C24.3241 11.4375 24.3908 11.5378 24.4545 11.6399C24.4952 11.7053 24.5317 11.7731 24.5748 11.8368L24.577 11.839C24.6874 12.0021 24.8062 12.1599 24.9313 12.3115V12.3137C25.6856 13.227 26.697 13.9211 27.8516 14.2824H27.8538C28.0457 14.3424 28.2408 14.3945 28.4401 14.4355H28.4423C28.6416 14.4766 28.8447 14.5064 29.0504 14.5274H29.0526C29.2583 14.5485 29.4693 14.5602 29.6804 14.5602C29.8916 14.5602 30.1023 14.5485 30.3082 14.5274C30.5141 14.5063 30.7191 14.4766 30.9185 14.4355C31.3181 14.3531 31.7058 14.2308 32.0735 14.0746C32.2571 13.9966 32.4376 13.9091 32.6116 13.8143C33.3089 13.434 33.9268 12.9219 34.4295 12.3137V12.3115C34.5549 12.1596 34.6731 12.0024 34.7838 11.839V11.8368C34.8945 11.6733 34.9996 11.5055 35.0945 11.3315V11.3293C35.1893 11.1553 35.2768 10.9769 35.3548 10.7934V10.7912C35.4327 10.6077 35.5025 10.4188 35.5626 10.2268V10.2246C35.6226 10.0326 35.6746 9.83773 35.7157 9.63836V9.63617C35.7568 9.43678 35.7865 9.23379 35.8076 9.02805V9.02586C35.8286 8.82009 35.8403 8.60912 35.8404 8.39805C35.8403 8.187 35.8286 7.97597 35.8076 7.77023C35.7654 7.35838 35.6827 6.95802 35.5626 6.57367V6.57148C35.0811 5.03222 34.0054 3.74717 32.6095 2.98617C32.4354 2.89137 32.2549 2.80386 32.0713 2.72586C31.7036 2.56974 31.3181 2.44733 30.9185 2.36492H30.9163C30.7169 2.32386 30.5141 2.29417 30.3082 2.27305H30.306C30.1001 2.25199 29.8894 2.24031 29.6782 2.24023ZM29.6782 4.48023H29.6804C29.9523 4.48038 30.2166 4.5072 30.4723 4.55898H30.4745C31.4985 4.76698 32.3744 5.37196 32.9354 6.20398C33.2161 6.62064 33.4179 7.0947 33.5216 7.60617C33.5734 7.86156 33.6003 8.12655 33.6004 8.39805V8.40023C33.6003 8.67188 33.5734 8.93877 33.5216 9.1943C33.4698 9.44978 33.3925 9.69719 33.2941 9.93148C33.1957 10.1658 33.0754 10.3907 32.9354 10.5987C32.3744 11.4315 31.4963 12.0336 30.4723 12.2415C30.2166 12.2933 29.9523 12.3201 29.6804 12.3202H29.6782C29.4067 12.3201 29.1395 12.2932 28.8841 12.2415C28.629 12.1897 28.3832 12.1123 28.1491 12.014H28.147C27.6782 11.8168 27.2579 11.5297 26.9045 11.1762C26.7275 10.9992 26.5657 10.8049 26.4254 10.5965C26.2854 10.3885 26.1652 10.1658 26.0666 9.93148V9.9293C25.9683 9.695 25.891 9.44978 25.8391 9.1943V9.19211C25.7874 8.93658 25.7605 8.66969 25.7604 8.39805C25.7605 8.12655 25.7874 7.86156 25.8391 7.60617C25.9429 7.0947 26.1448 6.61846 26.4254 6.2018C26.5657 5.99338 26.7275 5.80123 26.9045 5.6243C27.2579 5.27099 27.6804 4.98372 28.1491 4.78648C28.3832 4.68814 28.6311 4.61077 28.8863 4.55898C29.1416 4.50733 29.4069 4.48023 29.6782 4.48023ZM11.2004 12.3202C10.0783 12.3202 9.02698 12.8823 8.40477 13.8165L3.92477 20.5365C2.90392 22.0694 3.32288 24.1745 4.85665 25.1959C5.83002 25.8462 7.03092 25.9084 8.04165 25.478L10.5157 26.7577L10.4085 26.9152C10.3538 26.9952 10.3097 27.082 10.2773 27.1734L2.49196 49.1205C1.7917 50.8228 2.61542 52.8039 4.31852 53.5065C4.73634 53.6793 5.17263 53.7602 5.59821 53.7602C6.79733 53.7602 7.93664 53.1156 8.53821 52.0321L8.5404 52.0277C8.57099 51.9724 13.0213 42.8058 15.711 36.969L18.8982 41.6677L20.1823 50.7699C20.3707 52.4772 21.8288 53.7602 23.516 53.7602C23.6393 53.7602 23.764 53.7534 23.8857 53.7405H23.8923C25.7236 53.5371 27.0643 51.8612 26.8607 50.0305V50.0284L25.6948 39.723L25.6926 39.7187C25.6562 39.4055 25.5615 39.1015 25.4104 38.8218L25.4629 38.9334L23.1813 33.3027L29.1291 36.3762L29.2407 36.7262L29.221 36.654C29.5998 38.1707 30.9702 39.2002 32.4782 39.2002C32.7513 39.2002 33.0233 39.1672 33.2898 39.1018L33.2941 39.0996C33.5219 39.0427 33.7378 38.9626 33.9416 38.8634L38.4457 41.1909L43.7657 48.6393L44.8332 52.9115C44.8792 53.0956 44.9711 53.265 45.1005 53.4038C45.2298 53.5426 45.3923 53.6463 45.5727 53.7051C45.7531 53.7639 45.9455 53.7759 46.1318 53.74C46.3181 53.7042 46.4923 53.6215 46.6379 53.4999L53.3579 47.8999C53.5195 47.7652 53.6399 47.5876 53.7053 47.3876C53.7707 47.1876 53.7784 46.9732 53.7276 46.769L52.6076 42.289C52.5954 42.2414 52.58 42.1946 52.5616 42.149C52.5522 42.1253 52.542 42.102 52.531 42.079C52.5183 42.0515 52.5044 42.0245 52.4895 41.998C52.4859 41.9922 52.4822 41.9863 52.4785 41.9805L52.4763 41.9784C52.462 41.953 52.4467 41.9282 52.4304 41.904C52.4261 41.8981 52.4217 41.8923 52.4173 41.8865C52.4122 41.8799 52.4071 41.8733 52.402 41.8668C52.3839 41.8442 52.3649 41.8223 52.3451 41.8012C52.3248 41.7792 52.3036 41.758 52.2816 41.7377C52.2759 41.7326 52.27 41.7275 52.2641 41.7224C52.2605 41.7195 52.2569 41.7166 52.2532 41.7137C52.2003 41.6676 52.1432 41.6266 52.0826 41.5912C52.0569 41.5763 52.0306 41.5624 52.0038 41.5496C51.9973 41.5466 51.9907 41.5437 51.9841 41.5409C51.9798 41.5394 51.9754 41.5379 51.971 41.5365C51.8913 41.5006 51.8076 41.4742 51.7216 41.4577L39.5635 39.2484L35.5451 37.1702C35.8326 36.5131 35.9255 35.7664 35.7398 35.0243C35.7352 35.0052 35.7301 34.9862 35.7245 34.9674C35.7245 34.9674 31.2182 20.3158 31.1898 20.2302C30.9664 19.5533 30.5333 18.9616 29.9516 18.5459L22.1138 12.948C21.5438 12.5383 20.8602 12.3202 20.1604 12.3202H11.2004ZM11.2004 14.5602H20.1604C20.3947 14.5602 20.6208 14.6335 20.8079 14.768L20.8101 14.7702L28.6501 20.3702C28.8457 20.51 28.989 20.7044 29.0635 20.9302C29.0657 20.9361 29.0678 20.9419 29.0701 20.9477C29.0879 20.9991 33.5358 35.4699 33.5676 35.5734C33.6674 35.9791 33.5305 36.3647 33.257 36.6299C33.1932 36.6712 33.1339 36.7188 33.0798 36.7721C32.9804 36.8345 32.8779 36.8942 32.756 36.9252H32.7538C32.656 36.949 32.5651 36.9602 32.4782 36.9602C31.9814 36.9602 31.5229 36.631 31.3932 36.1115C31.3874 36.0879 31.3808 36.0646 31.3735 36.0415L31.1898 35.4684V35.4662C31.1725 35.3298 31.1302 35.1978 31.0651 35.0768L27.2479 23.179C27.1838 22.9776 27.064 22.7986 26.9024 22.6624C26.7408 22.5262 26.5439 22.4386 26.3346 22.4095C26.1253 22.3805 25.9121 22.4112 25.7195 22.4982C25.5269 22.5852 25.3629 22.7249 25.2463 22.9012L20.8254 29.5665L13.7948 25.933L18.8457 18.5524C18.9608 18.3841 19.0277 18.1876 19.0393 17.984C19.0509 17.7804 19.0067 17.5776 18.9115 17.3973C18.8162 17.217 18.6736 17.0661 18.499 16.9609C18.3243 16.8557 18.1243 16.8001 17.9204 16.8002H12.3991C12.2148 16.8002 12.0332 16.8458 11.8707 16.9328C11.7081 17.0198 11.5696 17.1456 11.4673 17.299L7.65227 23.0193C7.58218 23.1242 7.49236 23.202 7.40071 23.2752C7.36102 23.3012 7.32303 23.3297 7.28696 23.3605C6.93046 23.5768 6.47949 23.5848 6.10133 23.3321H6.09915C5.57435 22.9826 5.43849 22.3046 5.78852 21.779L10.2685 15.059C10.4774 14.7455 10.8239 14.5602 11.2004 14.5602ZM12.9985 19.0402H15.7963L11.7888 24.8962L9.78508 23.8593L12.9985 19.0402ZM25.826 26.0818L28.1601 33.3552L22.8291 30.6012L25.826 26.0818ZM12.5216 27.7946L20.1232 31.7234L23.387 39.7734C23.4024 39.8115 23.4199 39.8487 23.4395 39.8849C23.4541 39.9121 23.464 39.945 23.4679 39.979L24.6338 50.2799C24.7022 50.9055 24.2725 51.444 23.6451 51.5137C23.5995 51.5183 23.5565 51.5202 23.516 51.5202C22.9521 51.5202 22.4739 51.1093 22.4091 50.5227C22.4079 50.5118 22.4064 50.5008 22.4048 50.4899L21.0791 41.0968C21.0555 40.9275 20.9934 40.7659 20.8976 40.6243L16.4679 34.0924C16.3561 33.9268 16.202 33.7942 16.0216 33.7082C15.8412 33.6222 15.6411 33.586 15.4421 33.6034C15.243 33.6208 15.0522 33.6912 14.8895 33.8072C14.7268 33.9232 14.598 34.0806 14.5166 34.263C12.1124 39.6483 6.61394 50.8824 6.58258 50.9384L6.5804 50.9427C6.37943 51.3059 5.99464 51.5202 5.59821 51.5202C5.45483 51.5202 5.31596 51.495 5.17602 51.4371L5.17383 51.4349C4.58869 51.1939 4.32319 50.5579 4.56352 49.9737C4.57052 49.9563 4.57709 49.9388 4.58321 49.9212L12.3401 28.0593L12.5216 27.7946ZM41.7182 41.9171L48.9632 43.234L48.1735 43.8924L45.0104 46.5262L41.7182 41.9171ZM50.8663 44.564L51.3826 46.6312L46.5745 50.6365L46.0582 48.5715L50.8663 44.564Z" fill="black"/>
</svg>
