<svg width="32" height="32" viewBox="0 0 32 32" fill="none" xmlns="http://www.w3.org/2000/svg">
<path d="M22.667 14.4072C22.667 13.9458 22.667 13.7152 22.7364 13.5098C22.9377 12.9125 23.4697 12.6818 24.003 12.4392C24.6004 12.1658 24.899 12.0298 25.1964 12.0058C25.5324 11.9792 25.8697 12.0512 26.1577 12.2125C26.539 12.4258 26.8057 12.8338 27.0777 13.1645C28.335 14.6925 28.9644 15.4565 29.1937 16.2978C29.3804 16.9778 29.3804 17.6898 29.1937 18.3685C28.859 19.5978 27.799 20.6272 27.0137 21.5818C26.6124 22.0685 26.411 22.3125 26.1577 22.4552C25.8648 22.6176 25.5302 22.6895 25.1964 22.6618C24.899 22.6378 24.6004 22.5018 24.0017 22.2285C23.4684 21.9858 22.9377 21.7552 22.7364 21.1578C22.667 20.9525 22.667 20.7218 22.667 20.2605V14.4072ZM9.3337 14.4072C9.3337 13.8258 9.3177 13.3045 8.84837 12.8965C8.6777 12.7485 8.45103 12.6458 7.99903 12.4392C7.40037 12.1672 7.1017 12.0298 6.80437 12.0058C5.91503 11.9338 5.43637 12.5418 4.92437 13.1658C3.6657 14.6925 3.03637 15.4565 2.8057 16.2992C2.62011 16.9769 2.62011 17.6921 2.8057 18.3698C3.1417 19.5978 4.20303 20.6285 4.98703 21.5818C5.4817 22.1818 5.95503 22.7298 6.80437 22.6618C7.1017 22.6378 7.40037 22.5018 7.99903 22.2285C8.45237 22.0232 8.6777 21.9192 8.84837 21.7712C9.3177 21.3632 9.3337 20.8418 9.3337 20.2618V14.4072Z" stroke="black" stroke-width="2"/>
<path d="M6.6665 12C6.6665 7.58133 10.8452 4 15.9998 4C21.1545 4 25.3332 7.58133 25.3332 12" stroke="black" stroke-width="2" stroke-linecap="square" stroke-linejoin="round"/>
<path d="M25.333 22.667V23.7337C25.333 26.0897 22.9463 28.0003 19.9997 28.0003H17.333" stroke="black" stroke-width="2" stroke-linecap="round" stroke-linejoin="round"/>
</svg>
