<svg width="24" height="24" viewBox="0 0 24 24" fill="none" xmlns="http://www.w3.org/2000/svg">
<path d="M12 3.08789C12.3059 3.08797 12.6014 3.20011 12.8301 3.40332V3.4043L16.7646 6.90039L17.7793 7.80371L18.0029 6.46289L18.2529 4.95898C18.2583 4.92674 18.2698 4.89591 18.2871 4.86816C18.3044 4.84036 18.3269 4.81596 18.3535 4.79688C18.3801 4.77784 18.4105 4.76427 18.4424 4.75684C18.4743 4.74942 18.5077 4.74854 18.54 4.75391C18.5724 4.75929 18.604 4.77072 18.6318 4.78809C18.6594 4.80533 18.6832 4.82807 18.7021 4.85449C18.7212 4.88111 18.7357 4.9115 18.7432 4.94336C18.7506 4.97523 18.7514 5.00873 18.7461 5.04102L18.29 7.78711L18.2217 8.19531L18.5312 8.4707L21.1514 10.8008C21.1963 10.8451 21.2229 10.9046 21.2256 10.9678C21.2283 11.0326 21.2061 11.0961 21.1631 11.1445C21.1201 11.1929 21.0597 11.2226 20.9951 11.2275C20.9317 11.2323 20.8688 11.2127 20.8193 11.1729L20.3711 10.7744L19.2725 9.7998L19.126 11.2607L18.3398 19.125C18.3089 19.4334 18.1645 19.7198 17.9346 19.9277C17.7046 20.1358 17.4048 20.2501 17.0947 20.25H6.9043C6.59449 20.2499 6.29613 20.1346 6.06641 19.9268C5.83666 19.7188 5.69204 19.4333 5.66113 19.125L4.875 11.2607L4.72949 9.80176L3.63086 10.7744L3.17676 11.1758C3.12804 11.2134 3.06743 11.2321 3.00586 11.2275C2.94127 11.2227 2.88097 11.1929 2.83789 11.1445C2.79479 11.096 2.77168 11.0326 2.77441 10.9678C2.77647 10.9191 2.79245 10.8721 2.82031 10.833L2.85254 10.7969L11.1689 3.4043V3.40332C11.3978 3.19993 11.6939 3.08789 12 3.08789Z" stroke="black" stroke-width="1.5"/>
</svg>
