<svg width="191" height="15" viewBox="0 0 191 15" fill="none" xmlns="http://www.w3.org/2000/svg">
<path d="M0.00260401 7.36328C0.00260401 10.3088 2.39042 12.6966 5.33594 12.6966C8.28146 12.6966 10.6693 10.3088 10.6693 7.36328C10.6693 4.41776 8.28146 2.02995 5.33594 2.02995C2.39042 2.02995 0.00260401 4.41776 0.00260401 7.36328ZM190.043 8.07039C190.434 7.67986 190.434 7.0467 190.043 6.65617L183.679 0.292213C183.289 -0.0983109 182.655 -0.0983109 182.265 0.292213C181.874 0.682738 181.874 1.3159 182.265 1.70643L187.922 7.36328L182.265 13.0201C181.874 13.4107 181.874 14.0438 182.265 14.4343C182.655 14.8249 183.289 14.8249 183.679 14.4343L190.043 8.07039ZM5.33594 7.36328V8.36328H189.336V7.36328V6.36328H5.33594V7.36328Z" fill="#303030"/>
</svg>
