<svg width="24" height="24" viewBox="0 0 24 24" fill="none" xmlns="http://www.w3.org/2000/svg">
<path d="M12 3.0625C8.58398 3.0625 5.8125 5.70035 5.8125 8.94922C5.8125 12.6875 9.9375 18.6116 11.4521 20.6578C11.515 20.7441 11.5974 20.8144 11.6926 20.8629C11.7878 20.9114 11.8932 20.9366 12 20.9366C12.1068 20.9366 12.2122 20.9114 12.3074 20.8629C12.4026 20.8144 12.485 20.7441 12.5479 20.6578C14.0625 18.6125 18.1875 12.6905 18.1875 8.94922C18.1875 5.70035 15.416 3.0625 12 3.0625Z" stroke="#E3000F" stroke-width="1.375" stroke-linecap="round" stroke-linejoin="round"/>
<path d="M12 11.3125C13.1391 11.3125 14.0625 10.3891 14.0625 9.25C14.0625 8.11091 13.1391 7.1875 12 7.1875C10.8609 7.1875 9.9375 8.11091 9.9375 9.25C9.9375 10.3891 10.8609 11.3125 12 11.3125Z" stroke="#E3000F" stroke-width="1.375" stroke-linecap="round" stroke-linejoin="round"/>
</svg>
