<svg width="32" height="32" viewBox="0 0 32 32" fill="none" xmlns="http://www.w3.org/2000/svg">
<path d="M12.0002 27.6646H8.00016C7.53781 27.6843 7.07612 27.6126 6.64151 27.4537C6.2069 27.2947 5.8079 27.0516 5.46733 26.7383C5.12677 26.425 4.85133 26.0476 4.65677 25.6277C4.46221 25.2078 4.35236 24.7537 4.3335 24.2913V7.70464C4.35236 7.24226 4.46221 6.78813 4.65677 6.36825C4.85133 5.94837 5.12677 5.57097 5.46733 5.25765C5.8079 4.94433 6.2069 4.70124 6.64151 4.54229C7.07612 4.38333 7.53781 4.31164 8.00016 4.33131H12.0002C12.2654 4.33131 12.5197 4.43666 12.7073 4.6242C12.8948 4.81173 13.0002 5.06609 13.0002 5.33131C13.0002 5.59652 12.8948 5.85088 12.7073 6.03841C12.5197 6.22595 12.2654 6.33131 12.0002 6.33131H8.00016C7.60426 6.29688 7.2103 6.41616 6.89998 6.66441C6.58967 6.91266 6.38682 7.27084 6.3335 7.66464V24.2913C6.38682 24.6851 6.58967 25.0433 6.89998 25.2915C7.2103 25.5398 7.60426 25.6591 8.00016 25.6246H12.0002C12.2654 25.6246 12.5197 25.73 12.7073 25.9175C12.8948 26.1051 13.0002 26.3594 13.0002 26.6246C13.0002 26.8899 12.8948 27.1442 12.7073 27.3317C12.5197 27.5193 12.2654 27.6246 12.0002 27.6246V27.6646ZM21.3335 22.3313C21.2021 22.3319 21.0719 22.3063 20.9506 22.2559C20.8292 22.2056 20.7192 22.1315 20.6268 22.038C20.4396 21.8505 20.3344 21.5963 20.3344 21.3313C20.3344 21.0663 20.4396 20.8121 20.6268 20.6246L25.2535 15.998L20.6268 11.3713C20.5286 11.2798 20.4498 11.1694 20.3951 11.0467C20.3405 10.924 20.3111 10.7916 20.3087 10.6573C20.3063 10.5231 20.331 10.3897 20.3813 10.2652C20.4316 10.1407 20.5065 10.0275 20.6014 9.93259C20.6964 9.83763 20.8095 9.76277 20.934 9.71247C21.0585 9.66218 21.1919 9.63748 21.3262 9.63985C21.4605 9.64222 21.5929 9.67161 21.7155 9.72626C21.8382 9.78092 21.9486 9.85972 22.0402 9.95797L27.3735 15.2913C27.5608 15.4788 27.6659 15.733 27.6659 15.998C27.6659 16.263 27.5608 16.5171 27.3735 16.7046L22.0402 22.038C21.9478 22.1315 21.8378 22.2056 21.7164 22.2559C21.5951 22.3063 21.4649 22.3319 21.3335 22.3313Z" fill="black"/>
<path d="M26.6667 17H12C11.7348 17 11.4804 16.8946 11.2929 16.7071C11.1054 16.5196 11 16.2652 11 16C11 15.7348 11.1054 15.4804 11.2929 15.2929C11.4804 15.1054 11.7348 15 12 15H26.6667C26.9319 15 27.1862 15.1054 27.3738 15.2929C27.5613 15.4804 27.6667 15.7348 27.6667 16C27.6667 16.2652 27.5613 16.5196 27.3738 16.7071C27.1862 16.8946 26.9319 17 26.6667 17Z" fill="black"/>
</svg>
