<svg width="16" height="16" viewBox="0 0 16 16" fill="none" xmlns="http://www.w3.org/2000/svg">
<g clip-path="url(#clip0_1703_47790)">
<path d="M14.6678 14.6641H1.33447" stroke="black" stroke-linecap="round"/>
<path d="M14.0009 14.6644V3.99772C14.0009 2.74039 14.0009 2.11239 13.6102 1.72172C13.2196 1.33105 12.5916 1.33105 11.3342 1.33105H10.0009C8.74358 1.33105 8.11558 1.33105 7.72491 1.72172C7.41025 2.03572 7.34891 2.50439 7.33691 3.33105" stroke="black"/>
<path d="M10.001 14.6644V5.99772C10.001 4.74039 10.001 4.11239 9.61031 3.72172C9.21964 3.33105 8.59164 3.33105 7.33431 3.33105H4.66764C3.41031 3.33105 2.78231 3.33105 2.39164 3.72172C2.00098 4.11239 2.00098 4.74039 2.00098 5.99772V14.6644" stroke="black"/>
<path d="M6.00098 14.6644V12.6644M4.00098 5.33105H8.00098M4.00098 7.33105H8.00098M4.00098 9.33105H8.00098" stroke="black" stroke-linecap="round"/>
</g>
<defs>
<clipPath id="clip0_1703_47790">
<rect width="16" height="16" fill="white"/>
</clipPath>
</defs>
</svg>
