<svg width="24" height="24" viewBox="0 0 24 24" fill="none" xmlns="http://www.w3.org/2000/svg">
<path d="M8.17614 15.8226C6.20477 13.8474 4.6887 11.4653 3.73398 8.84308C3.20873 7.40942 3.68998 5.83458 4.76981 4.75475L5.43806 4.08742C5.61772 3.9074 5.83111 3.76458 6.06603 3.66713C6.30095 3.56969 6.55278 3.51953 6.8071 3.51953C7.06143 3.51953 7.31326 3.56969 7.54818 3.66713C7.7831 3.76458 7.99649 3.9074 8.17614 4.08742L9.74089 5.65217C9.92091 5.83182 10.0637 6.04521 10.1612 6.28013C10.2586 6.51505 10.3088 6.76688 10.3088 7.02121C10.3088 7.27553 10.2586 7.52736 10.1612 7.76228C10.0637 7.9972 9.92091 8.2106 9.74089 8.39025L9.35589 8.77525C9.20179 8.92932 9.07954 9.11224 8.99614 9.31357C8.91274 9.51489 8.86981 9.73067 8.86981 9.94858C8.86981 10.1665 8.91274 10.3823 8.99614 10.5836C9.07954 10.7849 9.20179 10.9678 9.35589 11.1219L12.8759 14.6428C13.03 14.7969 13.2129 14.9192 13.4142 15.0026C13.6155 15.086 13.8313 15.1289 14.0492 15.1289C14.2671 15.1289 14.4829 15.086 14.6842 15.0026C14.8856 14.9192 15.0685 14.7969 15.2226 14.6428L15.6085 14.2578C15.7881 14.0778 16.0015 13.935 16.2364 13.8376C16.4714 13.7401 16.7232 13.6899 16.9775 13.6899C17.2318 13.6899 17.4837 13.7401 17.7186 13.8376C17.9535 13.935 18.1669 14.0778 18.3466 14.2578L19.9113 15.8226C20.0913 16.0022 20.2341 16.2156 20.3316 16.4505C20.429 16.6855 20.4792 16.9373 20.4792 17.1916C20.4792 17.446 20.429 17.6978 20.3316 17.9327C20.2341 18.1676 20.0913 18.381 19.9113 18.5607L19.244 19.228C18.1641 20.3087 16.5893 20.79 15.1556 20.2648C12.5334 19.31 10.1513 17.794 8.17614 15.8226Z" stroke="#E3000F" stroke-width="1.375" stroke-linejoin="round"/>
</svg>
