<svg width="32" height="32" viewBox="0 0 32 32" fill="none" xmlns="http://www.w3.org/2000/svg">
<path d="M20.6673 23.9977C20.6673 24.6106 20.5466 25.2174 20.312 25.7836C20.0775 26.3498 19.7338 26.8642 19.3004 27.2976C18.8671 27.7309 18.3526 28.0746 17.7865 28.3092C17.2203 28.5437 16.6134 28.6644 16.0006 28.6644C15.3878 28.6644 14.7809 28.5437 14.2148 28.3092C13.6486 28.0746 13.1341 27.7309 12.7008 27.2976C12.2674 26.8642 11.9237 26.3498 11.6892 25.7836C11.4546 25.2174 11.3339 24.6106 11.3339 23.9977M25.6419 23.9977H6.36061C5.89417 23.9975 5.43826 23.859 5.05052 23.5998C4.66278 23.3405 4.36062 22.9721 4.18224 22.5411C4.00385 22.1101 3.95726 21.6359 4.04834 21.1785C4.13942 20.721 4.36409 20.3008 4.69394 19.9711L5.49661 19.1671C6.24631 18.4169 6.6674 17.3996 6.66727 16.3391V12.6644C6.66727 10.189 7.6506 7.81506 9.40094 6.06472C11.1513 4.31439 13.5253 3.33105 16.0006 3.33105C18.476 3.33105 20.8499 4.31439 22.6003 6.06472C24.3506 7.81506 25.3339 10.189 25.3339 12.6644V16.3391C25.3342 17.3998 25.7557 18.4171 26.5059 19.1671L27.3099 19.9711C27.6391 20.3011 27.8632 20.7212 27.9539 21.1785C28.0447 21.6357 27.9979 22.1096 27.8197 22.5403C27.6414 22.971 27.3395 23.3393 26.9522 23.5987C26.5649 23.858 26.1081 23.9969 25.6419 23.9977Z" stroke="black" stroke-width="2" stroke-linecap="round" stroke-linejoin="round"/>
</svg>
