<svg width="24" height="24" viewBox="0 0 24 24" fill="none" xmlns="http://www.w3.org/2000/svg">
<path d="M22.002 21.9951H2.00195" stroke="black" stroke-width="1.5" stroke-linecap="round"/>
<path d="M21.0019 21.9941V5.99414C21.0019 4.10814 21.0019 3.16614 20.4159 2.58014C19.8299 1.99414 18.8879 1.99414 17.0019 1.99414H15.0019C13.1159 1.99414 12.1739 1.99414 11.5879 2.58014C11.1159 3.05114 11.0239 3.75414 11.0059 4.99414" stroke="black" stroke-width="1.5"/>
<path d="M15.002 21.9941V8.99414C15.002 7.10814 15.002 6.16614 14.416 5.58014C13.83 4.99414 12.888 4.99414 11.002 4.99414H7.00195C5.11595 4.99414 4.17395 4.99414 3.58795 5.58014C3.00195 6.16614 3.00195 7.10814 3.00195 8.99414V21.9941" stroke="black" stroke-width="1.5"/>
<path d="M9.00195 21.9941V18.9941M6.00195 7.99414H12.002M6.00195 10.9941H12.002M6.00195 13.9941H12.002" stroke="black" stroke-width="1.5" stroke-linecap="round"/>
</svg>
