<svg width="16" height="16" viewBox="0 0 16 16" fill="none" xmlns="http://www.w3.org/2000/svg">
<path d="M4.6665 12.0002C3.44717 12.2748 2.6665 12.6962 2.6665 13.1695C2.6665 13.9962 5.0545 14.6668 7.99984 14.6668C10.9452 14.6668 13.3332 13.9962 13.3332 13.1695C13.3332 12.6962 12.5525 12.2748 11.3332 12.0002M9.6665 6.00016C9.6665 6.44219 9.49091 6.86611 9.17835 7.17867C8.86579 7.49123 8.44186 7.66683 7.99984 7.66683C7.55781 7.66683 7.13389 7.49123 6.82133 7.17867C6.50877 6.86611 6.33317 6.44219 6.33317 6.00016C6.33317 5.55814 6.50877 5.13421 6.82133 4.82165C7.13389 4.50909 7.55781 4.3335 7.99984 4.3335C8.44186 4.3335 8.86579 4.50909 9.17835 4.82165C9.49091 5.13421 9.6665 5.55814 9.6665 6.00016Z" stroke="#303030" stroke-linecap="round" stroke-linejoin="round"/>
<path d="M8.83799 11.6628C8.61281 11.8795 8.31248 12.0005 7.99999 12.0005C7.68751 12.0005 7.38718 11.8795 7.16199 11.6628C5.10266 9.6675 2.34333 7.43883 3.68866 4.20283C4.41733 2.45283 6.16399 1.3335 7.99999 1.3335C9.83599 1.3335 11.5833 2.4535 12.3113 4.20283C13.6553 7.43416 10.9027 9.67416 8.83799 11.6628Z" stroke="#303030" stroke-linecap="round" stroke-linejoin="round"/>
</svg>
