<svg width="32" height="32" viewBox="0 0 32 32" fill="none" xmlns="http://www.w3.org/2000/svg">
<path d="M7.85742 7.16699H24.1426C25.0329 7.16699 25.887 7.5208 26.5166 8.15039C27.1462 8.77998 27.5 9.63405 27.5 10.5244V21.667C27.5 22.5574 27.1462 23.4114 26.5166 24.041C25.887 24.6705 25.0329 25.0244 24.1426 25.0244H7.85742C6.96712 25.0244 6.11297 24.6705 5.4834 24.041C4.85381 23.4114 4.5 22.5574 4.5 21.667V10.5244C4.5 9.63404 4.85381 8.77998 5.4834 8.15039C6.11298 7.5208 6.96705 7.16699 7.85742 7.16699ZM5.21387 21.667C5.21387 22.3679 5.49265 23.0405 5.98828 23.5361C6.4839 24.0317 7.15656 24.3096 7.85742 24.3096H24.1426C24.8434 24.3096 25.5161 24.0317 26.0117 23.5361C26.5074 23.0405 26.7861 22.3679 26.7861 21.667V13.0244H5.21387V21.667ZM20.2861 19.167H22.8574C22.9519 19.1671 23.0425 19.2047 23.1094 19.2715C23.1764 19.3385 23.2139 19.4297 23.2139 19.5244C23.2138 19.619 23.1763 19.7095 23.1094 19.7764C23.0425 19.8433 22.952 19.8808 22.8574 19.8809H20.2861C20.1914 19.8809 20.1002 19.8433 20.0332 19.7764C19.9664 19.7095 19.9288 19.619 19.9287 19.5244C19.9287 19.4297 19.9662 19.3385 20.0332 19.2715C20.1002 19.2046 20.1914 19.167 20.2861 19.167ZM7.85742 7.88086C7.15649 7.88086 6.48391 8.15964 5.98828 8.65527C5.49265 9.15091 5.21387 9.82348 5.21387 10.5244V12.3096H26.7861V10.5244C26.7861 9.82349 26.5074 9.15091 26.0117 8.65527C25.5161 8.15964 24.8435 7.88086 24.1426 7.88086H7.85742Z" stroke="black"/>
</svg>
