<svg width="16" height="16" viewBox="0 0 16 16" fill="none" xmlns="http://www.w3.org/2000/svg">
<path d="M2.66406 14.0002H13.3307M3.77473 8.79156C3.49047 9.07645 3.3308 9.46244 3.33073 9.86489V12.0002H5.4794C5.88206 12.0002 6.26806 11.8402 6.55273 11.5549L12.8861 5.21822C13.1702 4.93329 13.3298 4.5473 13.3298 4.14489C13.3298 3.74248 13.1702 3.35649 12.8861 3.07156L12.2607 2.44489C12.1197 2.30379 11.9522 2.19187 11.7679 2.11554C11.5836 2.0392 11.3861 1.99994 11.1866 2C10.9871 2.00006 10.7896 2.03944 10.6053 2.1159C10.4211 2.19235 10.2537 2.30437 10.1127 2.44556L3.77473 8.79156Z" stroke="black" stroke-linecap="round" stroke-linejoin="round"/>
</svg>
