<svg width="119" height="48" viewBox="0 0 119 48" fill="none" xmlns="http://www.w3.org/2000/svg">
<g clip-path="url(#clip0_1348_20615)">
<path d="M0.510776 11.0254C0.20431 11.3319 0 11.8426 0 12.4556V35.0319C0 35.6448 0.20431 36.1556 0.510776 36.462L0.612931 36.5642L13.2802 23.8969V23.6926L0.510776 11.0254Z" fill="url(#paint0_linear_1348_20615)"/>
<path d="M17.4696 28.0869L13.2812 23.8985V23.6942L17.4696 19.5059L17.5718 19.608L22.5774 22.4684C24.0075 23.2856 24.0075 24.6136 22.5774 25.4309L17.4696 28.0869Z" fill="url(#paint1_linear_1348_20615)"/>
<path d="M17.4656 28.0854L13.1751 23.7949L0.507812 36.4622C1.01859 36.9729 1.73367 36.9729 2.65307 36.5643L17.4656 28.0854Z" fill="url(#paint2_linear_1348_20615)"/>
<path d="M17.4656 19.4026L2.55092 10.9237C1.73367 10.4129 0.916433 10.5151 0.507812 11.0259L13.2772 23.7953L17.4656 19.4026Z" fill="url(#paint3_linear_1348_20615)"/>
<path opacity="0.2" d="M17.4662 27.9844L2.55151 36.3611C1.73427 36.8719 1.01918 36.7697 0.508405 36.3611L0.40625 36.4633L0.508405 36.5654C1.01918 36.974 1.73427 37.0762 2.55151 36.5654L17.4662 27.9844Z" fill="white"/>
<path opacity="0.12" d="M0.510776 36.3606C0.20431 35.952 0 35.5434 0 34.9304V35.0326C0 35.6455 0.20431 36.1563 0.510776 36.4628V36.3606ZM22.4741 25.0214L17.3664 27.8817L17.4685 27.9839L22.4741 25.1235C23.1892 24.7149 23.4957 24.2041 23.4957 23.6934C23.4957 24.2041 23.1892 24.7149 22.4741 25.0214Z" fill="white"/>
<path opacity="0.25" d="M2.55388 11.1279L22.4741 22.3649C23.0871 22.7735 23.4957 23.1822 23.4957 23.6929C23.4957 23.1822 23.1892 22.6714 22.4741 22.2628L2.55388 10.9235C1.12371 10.1063 0 10.8214 0 12.4559V12.558C0 10.9235 1.12371 10.3106 2.55388 11.1279Z" fill="white"/>
<path d="M118.4 25.6344L113.191 37.6887H111.25L113.191 33.3982L109.819 25.6344H111.863L114.11 31.1508H114.212L116.357 25.6344H118.4ZM97.9694 25.0215C97.9694 27.4732 95.9263 29.0055 93.781 29.0055H91.125V33.8068H89.1841V21.0374H93.781C95.9263 21.0374 97.9694 22.5698 97.9694 25.0215ZM96.1306 25.0215C96.1306 23.9999 95.3134 22.8762 93.8832 22.8762H91.125V27.2689H93.8832C95.3134 27.2689 96.1306 26.043 96.1306 25.0215ZM109.513 28.9034V33.8068H107.674V32.7853H107.572C107.163 33.5004 106.448 34.0111 105.12 34.0111C103.486 34.0111 101.953 32.8874 101.953 31.1508C101.953 29.312 103.792 28.2905 105.631 28.2905C106.55 28.2905 107.266 28.5969 107.572 28.8012V28.6991C107.572 27.6775 106.55 27.0646 105.529 27.0646C104.814 27.0646 104.099 27.2689 103.792 27.984L102.056 27.2689C102.669 25.9409 104.099 25.328 105.427 25.328C107.878 25.4301 109.513 26.656 109.513 28.9034ZM107.674 30.3336C107.163 30.1292 106.755 29.9249 105.938 29.9249C105.018 29.9249 103.894 30.3336 103.894 31.253C103.894 32.0702 104.814 32.3767 105.427 32.3767C106.55 32.3767 107.572 31.5594 107.674 30.3336ZM54.247 29.7206C54.247 32.1723 52.306 34.1133 49.8543 34.1133C47.4026 34.1133 45.4616 32.2745 45.4616 29.7206C45.4616 27.1667 47.4026 25.328 49.8543 25.328C52.306 25.328 54.247 27.2689 54.247 29.7206ZM52.4082 29.7206C52.4082 28.1883 51.2845 27.0646 49.9565 27.0646C48.6284 27.0646 47.5047 28.0861 47.5047 29.7206C47.5047 31.253 48.6284 32.3767 49.9565 32.3767C51.2845 32.3767 52.4082 31.253 52.4082 29.7206ZM38.6172 26.7581V28.5969H43.0099C42.9078 29.6185 42.4991 30.4357 41.9884 30.9465C41.3754 31.5594 40.3539 32.2745 38.6172 32.2745C35.8591 32.2745 33.8159 30.1292 33.8159 27.3711C33.7943 26.4152 34.0572 25.4745 34.5714 24.6685C35.0856 23.8624 35.8279 23.2274 36.7038 22.8442C37.5797 22.461 38.5498 22.3468 39.4908 22.5163C40.4317 22.6857 41.3011 23.131 41.9884 23.7956L43.3164 22.4676C42.0844 21.2757 40.4335 20.6154 38.7194 20.6288C35.0418 20.6288 31.875 23.6935 31.875 27.3711C31.875 31.0486 35.0418 34.1133 38.7194 34.1133C40.7625 34.1133 42.1927 33.5004 43.4185 32.1723C44.6444 30.9465 45.053 29.2098 45.053 27.8818C45.053 27.4732 45.053 27.0646 44.9509 26.7581H38.6172ZM63.7474 29.7206C63.7474 32.1723 61.8065 34.1133 59.3547 34.1133C58.7741 34.1273 58.1966 34.0232 57.6573 33.8074C57.118 33.5916 56.6282 33.2686 56.2175 32.8579C55.8068 32.4472 55.4837 31.9573 55.2679 31.418C55.0521 30.8788 54.9481 30.3013 54.9621 29.7206C54.9621 27.1667 56.903 25.328 59.3547 25.328C61.8065 25.4301 63.7474 27.2689 63.7474 29.7206ZM61.9086 29.7206C61.9086 28.1883 60.7849 27.0646 59.4569 27.0646C58.1289 27.0646 57.0052 28.0861 57.0052 29.7206C57.0052 31.253 58.1289 32.3767 59.4569 32.3767C60.7849 32.3767 61.9086 31.253 61.9086 29.7206ZM85.0978 28.6991L79.275 31.1508C79.6836 32.0702 80.3987 32.4788 81.4203 32.4788C82.4418 32.4788 83.0547 31.968 83.5655 31.253L85.0978 32.2745C84.5936 33.0639 83.8438 33.6656 82.9639 33.9869C82.084 34.3082 81.1229 34.3313 80.2286 34.0525C79.3343 33.7738 78.5565 33.2087 78.015 32.4444C77.4735 31.6801 77.1983 30.7589 77.2319 29.8228C77.2319 27.2689 79.0707 25.4301 81.3181 25.4301C83.5655 25.4301 84.6892 27.2689 84.9957 28.1883L85.0978 28.6991ZM82.8504 27.984C82.6461 27.4732 82.0332 27.0646 81.2159 27.0646C80.1944 27.0646 78.8664 27.8818 78.9685 29.6185L82.8504 27.984ZM99.0931 33.8068H101.034V21.0374H99.0931V33.8068ZM74.2694 33.8068H76.2103V21.0374H74.2694V33.8068ZM71.1026 25.6344H72.9414V33.3982C72.9414 36.565 71.0004 37.893 68.8552 37.893C66.7099 37.893 65.4841 36.4629 64.9733 35.3392L66.6078 34.6241C66.9142 35.3392 67.6293 36.1564 68.753 36.1564C70.1832 36.1564 71.1026 35.237 71.1026 33.6025V32.9896H71.0004C70.5918 33.5004 69.7746 34.0111 68.753 34.0111C66.6078 34.0111 64.5647 32.0702 64.5647 29.7206C64.5647 27.2689 66.5056 25.328 68.753 25.328C69.7746 25.328 70.5918 25.8387 71.0004 26.3495H71.1026V25.6344ZM71.2047 29.7206C71.2047 28.1883 70.1832 27.0646 68.8552 27.0646C67.5272 27.0646 66.4034 28.1883 66.4034 29.7206C66.4034 31.253 67.5272 32.3767 68.8552 32.3767C70.1832 32.3767 71.2047 31.253 71.2047 29.7206ZM60.5806 15.7254C59.9677 15.1124 59.6612 14.3973 59.6612 13.4779C59.6612 12.5586 59.9677 11.8435 60.5806 11.2305C61.1935 10.5154 61.9086 10.209 62.828 10.209C63.7474 10.209 64.4625 10.5154 65.0754 11.1284C65.6884 11.7413 65.9948 12.4564 65.9948 13.3758C65.9948 14.2952 65.6884 15.0103 65.0754 15.6232C64.4625 16.2361 63.7474 16.5426 62.828 16.5426C61.9086 16.6448 61.1935 16.3383 60.5806 15.7254ZM60.4784 13.4779C60.4784 14.193 60.6828 14.806 61.1935 15.2146C61.6022 15.7254 62.2151 15.9297 62.828 15.9297C63.4409 15.9297 64.0539 15.7254 64.4625 15.2146C64.8711 14.806 65.1776 14.193 65.1776 13.4779C65.1776 12.7629 64.9733 12.1499 64.4625 11.7413C64.0539 11.2305 63.4409 11.0262 62.828 11.0262C62.2151 11.0262 61.6022 11.2305 61.1935 11.7413C60.6828 12.1499 60.4784 12.7629 60.4784 13.4779ZM35.2461 16.6448C36.1655 16.6448 36.8806 16.3383 37.4935 15.7254C38.0043 15.2146 38.2086 14.4995 38.2086 13.6823V13.1715H35.2461V13.8866H37.4935C37.4935 14.3973 37.2892 14.806 36.9828 15.1124C36.5741 15.5211 35.9612 15.8275 35.2461 15.8275C34.6332 15.8275 34.0203 15.6232 33.6116 15.1124C33.1009 14.7038 32.8966 14.0909 32.8966 13.3758C32.8966 12.6607 33.1009 12.0478 33.6116 11.6392C34.1224 11.2305 34.6332 10.9241 35.2461 10.9241C35.9612 10.9241 36.472 11.1284 36.8806 11.6392L37.4935 11.2305C37.2892 10.9241 36.9828 10.7198 36.5741 10.5154C36.1655 10.3111 35.7569 10.209 35.2461 10.209C34.3267 10.209 33.6116 10.5154 32.9987 11.1284C32.3858 11.7413 32.0793 12.4564 32.0793 13.3758C32.0793 14.2952 32.3858 15.0103 32.9987 15.6232C33.6116 16.3383 34.4289 16.6448 35.2461 16.6448ZM43.0099 15.7254H40.2517V13.7844H42.8056V13.0693H40.2517V11.1284H43.0099V10.4133H39.4345V16.5426H43.0099V15.7254ZM46.381 16.5426V11.1284H48.0155V10.4133H43.8272V11.1284H45.5638V16.5426H46.381ZM51.8974 10.4133H51.0802V16.5426H51.8974V10.4133ZM55.3707 16.5426V11.1284H57.1073V10.4133H52.919V11.1284H54.6556V16.5426H55.3707ZM67.8336 12.6607V11.4348L71.0004 16.4404H71.8177V10.3111H71.0004V15.1124L68.0379 10.3111H67.1185V16.4404H67.9358V12.6607H67.8336Z" fill="white"/>
</g>
<defs>
<linearGradient id="paint0_linear_1348_20615" x1="12.085" y1="12.2002" x2="-5.0669" y2="29.3418" gradientUnits="userSpaceOnUse">
<stop stop-color="#00A0FF"/>
<stop offset="0.01" stop-color="#00A1FF"/>
<stop offset="0.26" stop-color="#00BEFF"/>
<stop offset="0.51" stop-color="#00D2FF"/>
<stop offset="0.76" stop-color="#00DFFF"/>
<stop offset="1" stop-color="#00E3FF"/>
</linearGradient>
<linearGradient id="paint1_linear_1348_20615" x1="24.3753" y1="23.7351" x2="-0.336035" y2="23.7351" gradientUnits="userSpaceOnUse">
<stop stop-color="#FFE000"/>
<stop offset="0.41" stop-color="#FFBD00"/>
<stop offset="0.78" stop-color="#FFA500"/>
<stop offset="1" stop-color="#FF9C00"/>
</linearGradient>
<linearGradient id="paint2_linear_1348_20615" x1="15.1671" y1="26.0832" x2="-8.07322" y2="49.3235" gradientUnits="userSpaceOnUse">
<stop stop-color="#FF3A44"/>
<stop offset="1" stop-color="#C31162"/>
</linearGradient>
<linearGradient id="paint3_linear_1348_20615" x1="-2.73051" y1="3.4868" x2="7.64846" y2="13.8658" gradientUnits="userSpaceOnUse">
<stop stop-color="#32A071"/>
<stop offset="0.07" stop-color="#2DA771"/>
<stop offset="0.48" stop-color="#15CF74"/>
<stop offset="0.8" stop-color="#06E775"/>
<stop offset="1" stop-color="#00F076"/>
</linearGradient>
<clipPath id="clip0_1348_20615">
<rect width="118.5" height="48" fill="white"/>
</clipPath>
</defs>
</svg>
