<svg width="56" height="56" viewBox="0 0 56 56" fill="none" xmlns="http://www.w3.org/2000/svg">
<path d="M25.9558 7C25.511 7.08385 25.1902 7.4776 25.1975 7.93333V9.65416H21.7558C21.1068 9.65416 20.3959 9.39166 19.8308 8.89583C19.2694 8.39635 18.6022 8.07187 17.8766 7.90416C17.5157 7.82031 17.1438 7.78021 16.7683 7.7875C16.3928 7.79479 16.01 7.84583 15.6308 7.93333C15.6126 7.93333 15.5907 7.93333 15.5725 7.93333C13.9246 8.40364 12.4808 9.66874 12.1017 11.4333H12.1308C11.4199 14.5068 13.7824 17.4125 16.7975 17.4125C18.0152 17.4125 19.1016 16.9166 19.9183 16.2166C20.4068 15.7974 20.9902 15.5458 21.6391 15.5458H34.3558C35.0047 15.5458 35.5881 15.7974 36.0766 16.2166C36.8933 16.9166 37.9797 17.4125 39.1974 17.4125C42.1834 17.4125 44.5896 14.5687 43.8932 11.4333C43.5177 9.67968 42.1177 8.27968 40.3641 7.90416V7.93333C38.8474 7.58333 37.287 7.89687 36.1641 8.89583C35.599 9.39166 34.8881 9.65416 34.2391 9.65416H30.7974V7.93333C30.7974 7.41927 30.3782 7 29.8641 7H26.1308C26.1016 7 26.0725 7 26.0433 7C26.0141 7 25.985 7 25.9558 7ZM27.0641 8.86666H28.9308V9.65416H27.0641V8.86666ZM16.7683 9.91666C16.9834 9.90937 17.1839 9.93124 17.3808 9.97499C17.7782 10.0661 18.1537 10.2521 18.4308 10.5C19.3569 11.3094 20.5381 11.8125 21.7558 11.8125H34.2391C35.4568 11.8125 36.6381 11.3094 37.5641 10.5C38.1219 10.0042 38.986 9.7927 39.8974 10.0042C40.7578 10.1865 41.611 11.0396 41.7933 11.9C42.2162 13.8031 40.8781 15.2541 39.1974 15.2541C38.5485 15.2541 37.9651 15.0026 37.4766 14.5833C36.6599 13.8833 35.5735 13.3875 34.3558 13.3875H21.6391C20.4214 13.3875 19.335 13.8833 18.5183 14.5833C18.0298 15.0026 17.4464 15.2541 16.7975 15.2541C15.1459 15.2541 13.7897 13.6792 14.2017 11.9C14.3803 11.0687 15.1605 10.2958 16.0975 10.0042C16.3235 9.95312 16.5532 9.92395 16.7683 9.91666ZM25.1975 16.3333V23.275C23.3235 23.8656 21.7193 25.0651 20.56 26.6H12.1308V20.0666C12.1308 19.5526 11.7116 19.1333 11.1975 19.1333H5.59752C5.56835 19.1333 5.53918 19.1333 5.51002 19.1333C5.48085 19.1333 5.45168 19.1333 5.42252 19.1333C4.97773 19.2172 4.65689 19.6109 4.66418 20.0666V44.3332C4.66418 44.8473 5.08345 45.2666 5.59752 45.2666H11.1975C11.7116 45.2666 12.1308 44.8473 12.1308 44.3332V37.7999H20.56C22.2662 40.0567 24.9568 41.5332 27.9975 41.5332C31.0381 41.5332 33.7287 40.0567 35.4349 37.7999H36.2224C37.3052 37.7999 38.2349 38.1791 38.9933 38.9374C39.7516 39.6958 40.1308 40.6254 40.1308 41.7082V48.9999C40.1308 49.514 40.55 49.9332 41.0641 49.9332H50.3974C50.9115 49.9332 51.3307 49.514 51.3307 48.9999V41.7082C51.3307 37.6395 49.7411 33.8479 46.8682 30.9749C43.9953 28.102 40.1745 26.5125 36.1058 26.5125H35.3766C34.2209 25.0213 32.6349 23.8546 30.7974 23.275V16.3333H28.9308V22.925C28.6282 22.8958 28.311 22.8666 27.9975 22.8666C27.6839 22.8666 27.3667 22.8958 27.0641 22.925V16.3333H25.1975ZM6.53085 21H10.2642V27.2416C10.2095 27.4239 10.2095 27.6135 10.2642 27.7958V36.5749C10.2095 36.7572 10.2095 36.9468 10.2642 37.1291V43.3999H6.53085V21ZM27.9975 24.7333C30.4001 24.7333 32.5256 25.8671 33.8891 27.6208C33.9365 27.8869 34.0933 28.1203 34.3266 28.2624C35.0375 29.4072 35.4641 30.7489 35.4641 32.1999C35.4641 33.7494 34.9829 35.1786 34.1808 36.3708C34.1698 36.389 34.1589 36.4109 34.1516 36.4291C32.8063 38.3833 30.5568 39.6666 27.9975 39.6666C25.46 39.6666 23.2214 38.4124 21.8725 36.4874C21.8542 36.4473 21.836 36.4072 21.8141 36.3708C21.8068 36.3598 21.7923 36.3525 21.785 36.3416C21.7667 36.3124 21.7485 36.2833 21.7266 36.2541C20.972 35.0874 20.5308 33.6984 20.5308 32.1999C20.5308 30.665 20.9938 29.2432 21.785 28.0583C21.7959 28.0473 21.8032 28.0401 21.8141 28.0291C23.1522 26.0421 25.4126 24.7333 27.9975 24.7333ZM36.5141 28.4083C39.9412 28.5067 43.0839 29.8447 45.5266 32.2874C48.0677 34.8286 49.4641 38.1244 49.4641 41.7082V48.0666H41.9974V41.7082C41.9974 40.1806 41.4433 38.7041 40.3349 37.5958C39.3032 36.564 37.9578 36.0317 36.5433 35.9624C37.0537 34.8067 37.3308 33.5416 37.3308 32.1999C37.3308 30.8437 37.0354 29.5713 36.5141 28.4083ZM12.1308 28.4666H19.4516C18.9449 29.615 18.6641 30.8692 18.6641 32.1999C18.6641 33.5307 18.9449 34.7848 19.4516 35.9333H12.1308V28.4666ZM24.1183 34.0666C23.7902 34.114 23.5131 34.3291 23.3855 34.6353C23.2615 34.9416 23.3053 35.2916 23.5058 35.5541C24.5048 36.8848 26.1162 37.7999 27.9975 37.7999C29.8787 37.7999 31.4902 36.8848 32.4891 35.5541C32.7954 35.1348 32.7042 34.5478 32.2849 34.2416C31.8657 33.9354 31.2787 34.0265 30.9724 34.4458C30.2907 35.3536 29.2917 35.9333 27.9975 35.9333C26.7032 35.9333 25.7042 35.3536 25.0225 34.4458C24.8183 34.1577 24.4683 34.0119 24.1183 34.0666Z" fill="black"/>
</svg>
