<svg width="64" height="64" viewBox="0 0 64 64" fill="none" xmlns="http://www.w3.org/2000/svg">
<path d="M22.5 11.5H22C22.275 11.5 22.5 11.275 22.5 11V11.5ZM22.5 11.5H41.5V11C41.5 11.275 41.725 11.5 42 11.5H41.5V16H46V11C46 8.79375 44.2062 7 42 7H22C19.7937 7 18 8.79375 18 11V16H22.5V11.5ZM54 16H10C8.89375 16 8 16.8938 8 18V20C8 20.275 8.225 20.5 8.5 20.5H12.275L13.8188 53.1875C13.9188 55.3187 15.6813 57 17.8125 57H46.1875C48.325 57 50.0813 55.325 50.1813 53.1875L51.725 20.5H55.5C55.775 20.5 56 20.275 56 20V18C56 16.8938 55.1063 16 54 16ZM45.7062 52.5H18.2938L16.7812 20.5H47.2188L45.7062 52.5Z" fill="#E3000F"/>
</svg>
