<svg width="48" height="48" viewBox="0 0 48 48" fill="none" xmlns="http://www.w3.org/2000/svg">
<g clip-path="url(#clip0_1703_38893)">
<path d="M24 44.9879C38.5 44.9879 44 41.9879 44 30.9879M6.803 35.7709C5.119 35.3499 4 33.8129 4 32.0779V25.8999C4 24.1639 5.119 22.6259 6.803 22.2049C8.429 21.7979 10.565 21.3409 12.665 21.1209C14.103 20.9699 15.369 21.8129 15.608 23.2379C15.818 24.4819 16 26.3289 16 28.9879C16 31.6479 15.817 33.4949 15.608 34.7379C15.368 36.1629 14.103 37.0059 12.665 36.8559C10.565 36.6359 8.429 36.1779 6.803 35.7709Z" stroke="#E3000F" stroke-width="3" stroke-linecap="round" stroke-linejoin="round"/>
<path d="M41.197 35.7709C42.881 35.3499 44 33.8129 44 32.0779V25.8999C44 24.1639 42.881 22.6259 41.197 22.2049C39.571 21.7979 37.435 21.3409 35.335 21.1209C33.897 20.9699 32.631 21.8129 32.392 23.2379C32.182 24.4819 32 26.3289 32 28.9879C32 31.6479 32.183 33.4949 32.392 34.7379C32.632 36.1629 33.897 37.0059 35.335 36.8559C37.435 36.6359 39.571 36.1779 41.197 35.7709Z" stroke="#E3000F" stroke-width="3" stroke-linecap="round" stroke-linejoin="round"/>
<path d="M44 25.911V23C44 11.954 35.046 3 24 3C12.954 3 4 11.954 4 23V25.911M37.956 21.513C37.386 14.51 31.356 9 24 9C16.644 9 10.614 14.51 10.044 21.513" stroke="#E3000F" stroke-width="3" stroke-linecap="round" stroke-linejoin="round"/>
</g>
<defs>
<clipPath id="clip0_1703_38893">
<rect width="48" height="48" fill="white"/>
</clipPath>
</defs>
</svg>
