<svg width="24" height="24" viewBox="0 0 24 24" fill="none" xmlns="http://www.w3.org/2000/svg">
<g clip-path="url(#clip0_1703_46461)">
<path d="M21.999 12.498C21.999 6.97805 17.519 2.49805 11.999 2.49805C6.47902 2.49805 1.99902 6.97805 1.99902 12.498C1.99902 18.018 6.47902 22.498 11.999 22.498C17.519 22.498 21.999 18.018 21.999 12.498Z" fill="#E31F1E"/>
<path d="M21.499 11.498C21.499 6.25405 17.243 1.99805 11.999 1.99805C6.75502 1.99805 2.49902 6.25405 2.49902 11.498C2.49902 16.742 6.75502 20.998 11.999 20.998C17.243 20.998 21.499 16.742 21.499 11.498Z" fill="#FBDBDC"/>
<path d="M12.999 11.499C12.999 10.947 12.551 10.499 11.999 10.499C11.447 10.499 10.999 10.947 10.999 11.499C10.999 12.051 11.447 12.499 11.999 12.499C12.551 12.499 12.999 12.051 12.999 11.499Z" fill="#E31F1E"/>
<path d="M12.499 4.49805C12.499 4.22205 12.275 3.99805 11.999 3.99805C11.723 3.99805 11.499 4.22205 11.499 4.49805C11.499 4.77405 11.723 4.99805 11.999 4.99805C12.275 4.99805 12.499 4.77405 12.499 4.49805Z" fill="#E31F1E"/>
<path d="M12.499 18.499C12.499 18.223 12.275 17.999 11.999 17.999C11.723 17.999 11.499 18.223 11.499 18.499C11.499 18.775 11.723 18.999 11.999 18.999C12.275 18.999 12.499 18.775 12.499 18.499Z" fill="#E31F1E"/>
<path d="M19.499 11.498C19.499 11.222 19.275 10.998 18.999 10.998C18.723 10.998 18.499 11.222 18.499 11.498C18.499 11.774 18.723 11.998 18.999 11.998C19.275 11.998 19.499 11.774 19.499 11.498Z" fill="#E31F1E"/>
<path d="M5.49902 11.498C5.49902 11.222 5.27502 10.998 4.99902 10.998C4.72302 10.998 4.49902 11.222 4.49902 11.498C4.49902 11.774 4.72302 11.998 4.99902 11.998C5.27502 11.998 5.49902 11.774 5.49902 11.498Z" fill="#E31F1E"/>
<path d="M16.8527 6.64467C16.6572 6.44917 16.3412 6.44917 16.1452 6.64467L11.6452 11.1447C11.4497 11.3402 11.4497 11.6562 11.6452 11.8522L14.1452 14.3522C14.2432 14.4497 14.3712 14.4982 14.4992 14.4982C14.6272 14.4982 14.7552 14.4497 14.8527 14.3522C15.0482 14.1562 15.0482 13.8402 14.8527 13.6447L12.7062 11.4982L16.8527 7.35217C17.0477 7.15617 17.0477 6.84017 16.8527 6.64467Z" fill="#E31F1E"/>
<path fill-rule="evenodd" clip-rule="evenodd" d="M1.99902 11.499C1.99902 5.97902 6.47852 1.49902 11.999 1.49902C17.519 1.49902 21.999 5.97902 21.999 11.499C21.999 17.0195 17.519 21.499 11.999 21.499C6.47852 21.499 1.99902 17.0195 1.99902 11.499ZM20.999 11.499C20.999 6.53152 16.9665 2.49902 11.999 2.49902C7.03102 2.49902 2.99902 6.53152 2.99902 11.499C2.99902 16.467 7.03102 20.499 11.999 20.499C16.9665 20.499 20.999 16.467 20.999 11.499Z" fill="#E31F1E"/>
<path fill-rule="evenodd" clip-rule="evenodd" d="M0.81656 8.75928C0.55106 8.68178 0.39906 8.40378 0.47606 8.13928C1.39706 4.97978 3.58256 2.35878 6.44656 0.860784C6.69106 0.732784 6.99306 0.827284 7.12106 1.07228C7.24906 1.31678 7.15456 1.61878 6.90956 1.74678C4.28306 3.12078 2.28056 5.52478 1.43656 8.41878C1.35906 8.68378 1.08106 8.83578 0.81656 8.75928Z" fill="#E31F1E"/>
<path fill-rule="evenodd" clip-rule="evenodd" d="M16.8793 22.9287C16.7513 22.6842 16.8458 22.3822 17.0908 22.2542C19.7173 20.8802 21.7203 18.4762 22.5643 15.5822C22.6418 15.3167 22.9198 15.1647 23.1843 15.2417C23.4498 15.3192 23.6018 15.5972 23.5248 15.8617C22.6033 19.0212 20.4183 21.6422 17.5543 23.1402C17.3093 23.2677 17.0073 23.1732 16.8793 22.9287Z" fill="#E31F1E"/>
</g>
<defs>
<clipPath id="clip0_1703_46461">
<rect width="24" height="24" fill="white"/>
</clipPath>
</defs>
</svg>
