<svg width="73" height="73" viewBox="0 0 73 73" fill="none" xmlns="http://www.w3.org/2000/svg">
<circle opacity="0.08" cx="36.5" cy="36.5" r="36.5" fill="#E3000F"/>
<path d="M33.0003 37.0013L35.667 39.668L41.667 33.668M44.8686 27.666C45.1431 28.33 45.6701 28.8578 46.3337 29.1334L48.6606 30.0973C49.3247 30.3723 49.8523 30.9 50.1274 31.564C50.4024 32.2281 50.4024 32.9743 50.1274 33.6384L49.1642 35.9637C48.889 36.6281 48.8886 37.375 49.1651 38.0391L50.1266 40.3637C50.2629 40.6926 50.3331 41.0452 50.3332 41.4012C50.3332 41.7573 50.2631 42.1099 50.1269 42.4388C49.9906 42.7678 49.7909 43.0667 49.5391 43.3184C49.2873 43.5701 48.9884 43.7698 48.6594 43.9059L46.3341 44.8691C45.6701 45.1437 45.1423 45.6707 44.8668 46.3343L43.9029 48.6613C43.6279 49.3254 43.1003 49.853 42.4362 50.1281C41.7721 50.4032 41.026 50.4032 40.3619 50.1281L38.0367 49.1649C37.3726 48.8905 36.6268 48.8911 35.9631 49.1665L33.6362 50.129C32.9725 50.4034 32.227 50.4032 31.5635 50.1283C30.9 49.8535 30.3727 49.3265 30.0974 48.6631L29.1333 46.3354C28.8587 45.6714 28.3317 45.1436 27.6681 44.868L25.3412 43.9041C24.6774 43.6292 24.15 43.1019 23.8748 42.4382C23.5997 41.7745 23.5993 41.0287 23.8738 40.3647L24.8369 38.0394C25.1113 37.3753 25.1108 36.6294 24.8354 35.9657L23.8736 33.637C23.7373 33.3081 23.667 32.9555 23.667 32.5995C23.6669 32.2434 23.737 31.8908 23.8733 31.5619C24.0095 31.2329 24.2093 30.934 24.4611 30.6823C24.7129 30.4306 25.0118 30.2309 25.3408 30.0948L27.6661 29.1316C28.3295 28.8573 28.857 28.3309 29.1327 27.668L30.0966 25.341C30.3716 24.677 30.8992 24.1493 31.5633 23.8743C32.2274 23.5992 32.9735 23.5992 33.6375 23.8743L35.9628 24.8375C36.6269 25.1119 37.3727 25.1113 38.0364 24.8359L40.3643 23.8758C41.0283 23.6008 41.7742 23.6009 42.4382 23.8759C43.1021 24.1509 43.6296 24.6784 43.9047 25.3423L44.8689 27.67L44.8686 27.666Z" stroke="#E3000F" stroke-width="3" stroke-linecap="round" stroke-linejoin="round"/>
</svg>
