<svg width="32" height="32" viewBox="0 0 32 32" fill="none" xmlns="http://www.w3.org/2000/svg">
<path d="M12.0003 16.0013L14.667 18.668L20.667 12.668M23.8686 6.66598C24.1431 7.33001 24.6701 7.85783 25.3337 8.1334L27.6606 9.09727C28.3247 9.37234 28.8523 9.89996 29.1274 10.564C29.4024 11.2281 29.4024 11.9743 29.1274 12.6384L28.1642 14.9637C27.889 15.6281 27.8886 16.375 28.1651 17.0391L29.1266 19.3637C29.2629 19.6926 29.3331 20.0452 29.3332 20.4012C29.3332 20.7573 29.2631 21.1099 29.1269 21.4388C28.9906 21.7678 28.7909 22.0667 28.5391 22.3184C28.2873 22.5701 27.9884 22.7698 27.6594 22.9059L25.3341 23.8691C24.6701 24.1437 24.1423 24.6707 23.8668 25.3343L22.9029 27.6613C22.6279 28.3254 22.1003 28.853 21.4362 29.1281C20.7721 29.4032 20.026 29.4032 19.3619 29.1281L17.0367 28.1649C16.3726 27.8905 15.6268 27.8911 14.9631 28.1665L12.6362 29.129C11.9725 29.4034 11.227 29.4032 10.5635 29.1283C9.89996 28.8535 9.37266 28.3265 9.09741 27.6631L8.13328 25.3354C7.85873 24.6714 7.33172 24.1436 6.66812 23.868L4.34121 22.9041C3.67744 22.6292 3.15 22.1019 2.87484 21.4382C2.59967 20.7745 2.5993 20.0287 2.8738 19.3647L3.83694 17.0394C4.11133 16.3753 4.11077 15.6294 3.83539 14.9657L2.87362 12.637C2.73726 12.3081 2.66705 11.9555 2.66699 11.5995C2.66694 11.2434 2.73704 10.8908 2.87329 10.5619C3.00954 10.2329 3.20928 9.93404 3.46108 9.68231C3.71289 9.43057 4.01182 9.23093 4.34081 9.09477L6.66605 8.13159C7.32949 7.85726 7.85697 7.3309 8.13273 6.66804L9.09657 4.34105C9.37163 3.67696 9.89923 3.14935 10.5633 2.87427C11.2274 2.5992 11.9735 2.5992 12.6375 2.87427L14.9628 3.83746C15.6269 4.11185 16.3727 4.11129 17.0364 3.8359L19.3643 2.87577C20.0283 2.60085 20.7742 2.6009 21.4382 2.87592C22.1021 3.15094 22.6296 3.67841 22.9047 4.34232L23.8689 6.67001L23.8686 6.66598Z" stroke="#E3000F" stroke-width="3" stroke-linecap="round" stroke-linejoin="round"/>
</svg>
