<svg width="32" height="32" viewBox="0 0 32 32" fill="none" xmlns="http://www.w3.org/2000/svg">
<path d="M16.6173 6.17996C16.3916 5.62685 15.6084 5.62685 15.3827 6.17996L12.8617 12.3593C12.7661 12.5936 12.546 12.7536 12.2936 12.7723L5.62839 13.266C5.03282 13.3101 4.79123 14.0548 5.24749 14.4402L10.3566 18.755C10.5503 18.9186 10.6345 19.1779 10.5738 19.424L8.97594 25.9011C8.83281 26.4813 9.46659 26.9423 9.97452 26.6273L15.6487 23.1091M15.3827 6.17996C15.6084 5.62685 16.3916 5.62685 16.6173 6.17996L19.1383 12.3593C19.2339 12.5936 19.454 12.7536 19.7064 12.7723L26.3716 13.266C26.9672 13.3101 27.2088 14.0548 26.7525 14.4402L21.6434 18.755C21.4497 18.9186 21.3655 19.1779 21.4263 19.424L23.0241 25.9011C23.1672 26.4813 22.5334 26.9423 22.0255 26.6273L16.3513 23.1091" stroke="black" stroke-width="1.33333" stroke-linecap="round" stroke-linejoin="round"/>
</svg>
