<svg width="64" height="64" viewBox="0 0 64 64" fill="none" xmlns="http://www.w3.org/2000/svg">
<path d="M33.2345 12.3589C32.7832 11.2527 31.2168 11.2527 30.7655 12.3589L25.7233 24.7176C25.5321 25.1862 25.092 25.5062 24.5873 25.5436L11.2568 26.531C10.0656 26.6193 9.58246 28.1087 10.495 28.8794L20.7133 37.5091C21.1007 37.8363 21.2689 38.3548 21.1475 38.8471L17.9519 51.8011C17.6656 52.9616 18.9332 53.8835 19.949 53.2537L31.2974 46.2173M30.7655 12.3589C31.2168 11.2527 32.7832 11.2527 33.2345 12.3589L38.2767 24.7176C38.4679 25.1862 38.908 25.5062 39.4127 25.5436L52.7432 26.531C53.9344 26.6193 54.4175 28.1087 53.505 28.8794L43.2867 37.5091C42.8994 37.8363 42.7311 38.3548 42.8525 38.8471L46.0481 51.8011C46.3344 52.9616 45.0668 53.8835 44.051 53.2537L32.7026 46.2173" stroke="#E3000F" stroke-width="3.33333" stroke-linecap="round" stroke-linejoin="round"/>
</svg>
