<svg width="56" height="56" viewBox="0 0 56 56" fill="none" xmlns="http://www.w3.org/2000/svg">
<rect width="56" height="56" rx="28" fill="white"/>
<path d="M25.83 18.34H26.97M25.83 18.34C25.7 18.34 25.58 18.36 25.47 18.39M25.83 18.34C25.71 18.34 25.59 18.36 25.47 18.39M26.97 18.34C27.13 18.34 27.25 18.47 27.25 18.62V18.24C26.17 17.46 25.47 16.2 25.47 14.77V11.54M26.97 18.34H26.96C27.11 18.34 27.24 18.46 27.24 18.62V23.19C27.24 23.34 27.12 23.47 26.96 23.47H25.82C25.4 23.47 25.03 23.29 24.77 23M25.47 11.54V18.39M25.47 11.54C25.47 10.69 24.78 10 23.93 10H11.55C10.7 10 10.01 10.69 10.01 11.54V21.71C10.01 22.56 10.7 23.25 11.55 23.25H17.75C17.91 23.25 18.06 23.3 18.18 23.4L20.45 25.18C20.64 25.32 20.91 25.19 20.91 24.96V23.96C20.91 23.57 21.22 23.25 21.61 23.25H23.92C24.23 23.25 24.52 23.16 24.77 23M25.47 18.39C24.85 18.55 24.4 19.1 24.4 19.76M25.47 18.39C24.86 18.55 24.4 19.1 24.4 19.76M24.4 19.76V22.04M24.77 23C24.54 22.75 24.4 22.41 24.4 22.04M24.77 23C24.54 22.74 24.4 22.41 24.4 22.04M32.11 32.46L30.46 30.66L28.54 31.17M32.11 32.46L30.46 30.67V27.67C31.21 28.04 32.05 28.25 32.95 28.25H32.96M32.11 32.46L32.43 32.81M32.11 32.46L32.64 33.04C32.72 33.13 32.84 33.18 32.95 33.18V32.82H32.43V32.81M33.48 33.96L35.23 35.94M33.48 33.96H32.95M33.48 33.96C33.34 33.8 33.15 33.72 32.95 33.72V33.96M35.23 35.94L33.48 33.97C33.34 33.81 33.14 33.73 32.95 33.73M35.23 35.94L37.36 31.18L35.44 30.67L33.26 33.04V33.03M35.23 35.94L34.16 38.43M32.43 33.96L30.67 35.94M32.43 33.96C32.57 33.8 32.76 33.72 32.96 33.72V33.16C32.85 33.16 32.73 33.11 32.65 33.02L32.12 32.44L30.47 30.65L28.55 31.16L30.68 35.92L32.43 33.95V33.96ZM32.43 33.96H32.95M30.67 35.94L31.74 38.43M30.67 35.94L28.54 31.18L25.91 31.88M31.74 38.43L31.75 38.44L30.82 45.07H26.4C27.19 45.07 27.83 44.43 27.83 43.64V42.92C27.83 42.53 27.51 42.21 27.12 42.21H26.4V32.95M31.74 38.43L30.82 45.06H35.09L34.16 38.43M31.74 38.43H34.16M25.91 31.88C26.21 32.14 26.4 32.52 26.4 32.95M25.91 31.88C25.66 31.66 25.33 31.52 24.97 31.52H11.43C10.64 31.52 10 32.16 10 32.95V43.64C10 44.43 10.64 45.07 11.43 45.07H24.97C25.76 45.07 26.4 44.43 26.4 43.64V32.95M35.5526 30.5259L37.3324 31.416M33.26 33.03C33.18 33.12 33.06 33.17 32.95 33.17V33.73M33.26 33.03L35.44 30.66L33.47 32.8H32.95V33.16C33.06 33.16 33.18 33.11 33.26 33.02V33.03ZM32.95 33.73C32.76 33.73 32.56 33.81 32.42 33.97H32.95V33.73ZM32.43 32.81H33.47L35.45 30.67V27.67M35.45 27.67C34.7 28.04 33.85 28.25 32.96 28.25M35.45 27.67C37.35 26.74 38.66 24.8 38.66 22.55V20.9L37 17.71C36.87 17.46 36.53 17.4 36.33 17.61L35.72 18.22C35.19 18.75 34.46 19.05 33.7 19.05H29.75C28.82 19.05 27.96 18.75 27.26 18.24V22.55C27.26 24.8 28.57 26.74 30.47 27.67C31.22 28.04 32.07 28.25 32.96 28.25M32.95 24.54C33.53 24.54 34.01 25.01 34.01 25.6M32.95 24.54C32.36 24.54 31.89 25.01 31.89 25.6M32.95 24.54C32.3646 24.54 31.89 25.0146 31.89 25.6M32.95 24.54C33.5354 24.54 34.01 25.0146 34.01 25.6M34.01 25.6C34.01 26.19 33.54 26.66 32.95 26.66M34.01 25.6C34.01 26.1854 33.5354 26.66 32.95 26.66M32.95 26.66C32.36 26.66 31.89 26.19 31.89 25.6M32.95 26.66C32.3646 26.66 31.89 26.1854 31.89 25.6M33.7 24.85L38.65 20.9M12.73 13.05H21.16M12.73 15.19H21.16M12.73 17.62H21.16M41.36 32.24L37.36 31.17L35.23 35.93L34.16 38.42L35.09 45.05H44.36C44.75 45.05 45.07 44.73 45.07 44.34V37.05C45.07 34.79 43.55 32.81 41.37 32.23L41.36 32.24ZM37.66 12.14H37.04C36.87 12.14 36.74 12 36.74 11.84C36.74 10.83 35.92 10.01 34.91 10.01H26.19C25.8 10.01 25.48 10.33 25.48 10.72V14.79C25.48 16.22 26.18 17.48 27.26 18.26C27.96 18.77 28.82 19.07 29.75 19.07H33.7C34.46 19.07 35.18 18.77 35.72 18.24L36.33 17.63C36.53 17.43 36.87 17.48 37 17.73L38.66 20.92V18.64C38.66 18.48 38.79 18.36 38.94 18.36H40.08C40.23 18.36 40.37 18.39 40.51 18.43V15.01C40.51 13.44 39.23 12.16 37.66 12.16V12.14ZM27.82 43.63V42.91C27.82 42.52 27.5 42.2 27.11 42.2H26.39V43.63C26.39 44.42 25.75 45.06 24.96 45.06H26.39C27.18 45.06 27.82 44.42 27.82 43.63ZM40.51 18.41C40.37 18.37 40.23 18.34 40.08 18.34H38.94C38.78 18.34 38.66 18.47 38.66 18.62V23.19C38.66 23.35 38.79 23.47 38.94 23.47H40.08C40.87 23.47 41.51 22.83 41.51 22.04V19.76C41.51 19.12 41.09 18.59 40.51 18.41Z" stroke="black" stroke-width="0.75" stroke-linecap="round" stroke-linejoin="round"/>
</svg>
