<svg width="56" height="56" viewBox="0 0 56 56" fill="none" xmlns="http://www.w3.org/2000/svg">
<rect width="56" height="56" rx="28" fill="white"/>
<path d="M33.92 30.0848L33.2 27.2048L27.14 33.3848L30.02 34.1048L38.9 45.9848H42.86L45.8 42.9848V39.0248L33.92 30.0848Z" fill="#E31E24"/>
<path d="M27.14 33.3848L21.86 38.6648M27.14 33.3848L33.2 27.2048L33.92 30.0848L45.8 39.0248V42.9848L42.86 45.9848H38.9L30.02 34.1048L27.14 33.3848ZM21.86 38.6648C23.24 42.9248 18.62 47.3048 14.42 45.9848L17.36 41.6048L14.54 38.8448L10.22 41.7848C8.96002 37.5848 13.34 33.0848 17.54 34.4648M21.86 38.6648L17.54 34.4648M17.54 34.4648L24.92 27.0848M24.92 27.0848L15.2 17.2448H13.22L10.22 12.3248L12.2 10.3448L17.12 13.2848V15.2648L26.96 25.1048M24.92 27.0848L26.96 25.1048M26.96 25.1048L34.64 17.4248M38.84 21.6848C43.1 22.9448 47.3 18.6848 46.1 14.4248L41.78 17.3648L38.96 14.5448L41.96 10.2248C37.76 8.96482 33.32 13.2248 34.7 17.4248L38.84 21.6848ZM38.84 21.6848L33.26 27.2048M31.34 24.9848L24.02 32.3048M32.96 33.0848L41.84 41.9648" stroke="#081219" stroke-width="0.75" stroke-linecap="round" stroke-linejoin="round"/>
</svg>
