<svg width="132" height="124" viewBox="0 0 132 124" fill="none" xmlns="http://www.w3.org/2000/svg">
<path d="M4.65625 123.74L9.31543 115.67H-0.00293159L4.65625 123.74ZM122.612 4.30469C122.612 6.6817 124.539 8.60866 126.916 8.60866C129.293 8.60866 131.22 6.6817 131.22 4.30469C131.22 1.92767 129.293 0.000719547 126.916 0.000719547C124.539 0.000719547 122.612 1.92767 122.612 4.30469ZM4.65625 116.477H5.46324V43.0404H4.65625H3.84926V116.477H4.65625ZM43.392 4.30469V5.11168H126.916V4.30469V3.49769H43.392V4.30469ZM4.65625 43.0404H5.46324C5.46324 22.093 22.4445 5.11168 43.392 5.11168V4.30469V3.49769C21.5531 3.49769 3.84926 21.2016 3.84926 43.0404H4.65625Z" fill="#E31E24"/>
</svg>
