<svg width="56" height="56" viewBox="0 0 56 56" fill="none" xmlns="http://www.w3.org/2000/svg">
<rect width="56" height="56" rx="28" fill="white"/>
<path d="M44.34 28.41H33.83V21.8H38.69C39.41 21.8 40.09 22.15 40.51 22.73L44.64 28.41V28.44M44.34 28.41C44.44 28.41 44.54 28.42 44.64 28.44M44.34 28.41H42.84V31.71C42.84 32.54 43.51 33.21 44.34 33.21H45.84V29.91C45.84 29.18 45.32 28.58 44.64 28.44M13.62 38.02H11.76C11.35 38.02 11.01 37.68 11.01 37.27V32.62H33.83V28.42H42.84V31.72C42.84 32.55 43.51 33.22 44.34 33.22H44.32H45.82V37.27C45.82 37.68 45.48 38.02 45.07 38.02H43.21C42.72 36.62 41.38 35.62 39.82 35.62C38.26 35.62 36.93 36.62 36.43 38.02H20.4M13.62 38.02C14.12 36.62 15.45 35.62 17.01 35.62M13.62 38.02C14.11 36.62 15.45 35.62 17.01 35.62M13.62 38.02C13.49 38.4 13.41 38.8 13.41 39.22C13.41 41.21 15.02 42.82 17.01 42.82C19 42.82 20.61 41.21 20.61 39.22C20.61 38.8 20.53 38.4 20.4 38.02M17.01 35.62C18.57 35.62 19.91 36.62 20.4 38.02M17.01 35.62C18.57 35.62 19.9 36.62 20.4 38.02M38.03 31.41H35.63M19.74 23.76L22.04 25.21L24.48 21M38.63 21.81L36.45 18.54C36.31 18.33 36.08 18.21 35.83 18.21H33.83V21.81H38.63ZM33.07 14H11.75C11.34 14 11 14.34 11 14.75V32.62H33.82V14.75C33.82 14.34 33.48 14 33.07 14ZM26.9 22.46C26.47 24.78 25.17 26.86 23.26 28.25L21.95 29.21L20.7 28.3C18.76 26.91 17.44 24.82 17.01 22.48L16.56 19.6L21.96 17.19L27.36 19.6L26.91 22.46H26.9ZM43.23 38.02C42.73 36.62 41.4 35.62 39.84 35.62C38.28 35.62 36.94 36.62 36.45 38.02C36.32 38.4 36.24 38.8 36.24 39.22C36.24 41.21 37.85 42.82 39.84 42.82C41.83 42.82 43.44 41.21 43.44 39.22C43.44 38.8 43.36 38.4 43.23 38.02ZM39.83 40.42C39.17 40.42 38.63 39.88 38.63 39.22C38.63 38.56 39.17 38.02 39.83 38.02C40.49 38.02 41.03 38.56 41.03 39.22C41.03 39.88 40.49 40.42 39.83 40.42ZM17.01 40.42C16.35 40.42 15.81 39.88 15.81 39.22C15.81 38.56 16.35 38.02 17.01 38.02C17.67 38.02 18.21 38.56 18.21 39.22C18.21 39.88 17.67 40.42 17.01 40.42ZM16.55 19.6L17 22.48C17.43 24.82 18.75 26.91 20.69 28.3L21.94 29.21L23.25 28.25C25.16 26.86 26.46 24.79 26.89 22.46L27.34 19.6L21.94 17.19L16.54 19.6H16.55Z" stroke="black" stroke-width="0.75" stroke-linecap="round" stroke-linejoin="round"/>
</svg>
