<svg width="36" height="30" viewBox="0 0 36 30" fill="none" xmlns="http://www.w3.org/2000/svg">
<path d="M33.715 14.785H23.205V8.175H28.065C28.785 8.175 29.465 8.525 29.885 9.105L34.015 14.785V14.815M33.715 14.785C33.815 14.785 33.915 14.795 34.015 14.815M33.715 14.785H32.215V18.085C32.215 18.915 32.885 19.585 33.715 19.585H35.215V16.285C35.215 15.555 34.695 14.955 34.015 14.815M2.995 24.395H1.13501C0.72501 24.395 0.38501 24.055 0.38501 23.645V18.995H23.205V14.795H32.215V18.095C32.215 18.925 32.885 19.595 33.715 19.595H33.695H35.195V23.645C35.195 24.055 34.855 24.395 34.445 24.395H32.585C32.095 22.995 30.755 21.995 29.195 21.995C27.635 21.995 26.305 22.995 25.805 24.395H9.77499M2.995 24.395C3.495 22.995 4.82501 21.995 6.38501 21.995M2.995 24.395C3.485 22.995 4.82501 21.995 6.38501 21.995M2.995 24.395C2.865 24.775 2.785 25.175 2.785 25.595C2.785 27.585 4.39501 29.195 6.38501 29.195C8.37501 29.195 9.98502 27.585 9.98502 25.595C9.98502 25.175 9.90499 24.775 9.77499 24.395M6.38501 21.995C7.94501 21.995 9.28499 22.995 9.77499 24.395M6.38501 21.995C7.94501 21.995 9.27499 22.995 9.77499 24.395M27.405 17.785H25.005M9.11499 10.135L11.415 11.585L13.855 7.375M28.005 8.185L25.825 4.91501C25.685 4.70501 25.455 4.58501 25.205 4.58501H23.205V8.185H28.005ZM22.445 0.375H1.125C0.715 0.375 0.375 0.715 0.375 1.125V18.995H23.195V1.125C23.195 0.715 22.855 0.375 22.445 0.375ZM16.275 8.83501C15.845 11.155 14.545 13.235 12.635 14.625L11.325 15.585L10.075 14.675C8.13501 13.285 6.81501 11.195 6.38501 8.855L5.935 5.97501L11.335 3.565L16.735 5.97501L16.285 8.83501H16.275ZM32.605 24.395C32.105 22.995 30.775 21.995 29.215 21.995C27.655 21.995 26.315 22.995 25.825 24.395C25.695 24.775 25.615 25.175 25.615 25.595C25.615 27.585 27.225 29.195 29.215 29.195C31.205 29.195 32.815 27.585 32.815 25.595C32.815 25.175 32.735 24.775 32.605 24.395ZM29.205 26.795C28.545 26.795 28.005 26.255 28.005 25.595C28.005 24.935 28.545 24.395 29.205 24.395C29.865 24.395 30.405 24.935 30.405 25.595C30.405 26.255 29.865 26.795 29.205 26.795ZM6.38501 26.795C5.72501 26.795 5.185 26.255 5.185 25.595C5.185 24.935 5.72501 24.395 6.38501 24.395C7.04501 24.395 7.58499 24.935 7.58499 25.595C7.58499 26.255 7.04501 26.795 6.38501 26.795ZM5.92502 5.97501L6.375 8.855C6.805 11.195 8.125 13.285 10.065 14.675L11.315 15.585L12.625 14.625C14.535 13.235 15.835 11.165 16.265 8.83501L16.715 5.97501L11.315 3.565L5.91501 5.97501H5.92502Z" stroke="black" stroke-width="0.75" stroke-linecap="round" stroke-linejoin="round"/>
</svg>
