<svg width="32" height="32" viewBox="0 0 32 32" fill="none" xmlns="http://www.w3.org/2000/svg">
<path d="M5.33447 24.0013C5.33447 22.5868 5.89638 21.2303 6.89657 20.2301C7.89676 19.2299 9.25332 18.668 10.6678 18.668H21.3345C22.749 18.668 24.1055 19.2299 25.1057 20.2301C26.1059 21.2303 26.6678 22.5868 26.6678 24.0013C26.6678 24.7085 26.3869 25.3868 25.8868 25.8869C25.3867 26.387 24.7084 26.668 24.0011 26.668H8.00114C7.2939 26.668 6.61562 26.387 6.11552 25.8869C5.61542 25.3868 5.33447 24.7085 5.33447 24.0013Z" stroke="black" stroke-width="1.33333" stroke-linejoin="round"/>
<path d="M16.001 13.3345C18.2101 13.3345 20.001 11.5436 20.001 9.33447C20.001 7.12533 18.2101 5.33447 16.001 5.33447C13.7918 5.33447 12.001 7.12533 12.001 9.33447C12.001 11.5436 13.7918 13.3345 16.001 13.3345Z" stroke="black" stroke-width="1.33333"/>
</svg>
