<svg width="24" height="24" viewBox="0 0 24 24" fill="none" xmlns="http://www.w3.org/2000/svg">
<g clip-path="url(#clip0_1703_37571)">
<path d="M2.375 12C2.375 14.5527 3.38906 17.0009 5.1941 18.8059C6.99914 20.6109 9.44729 21.625 12 21.625C14.5527 21.625 17.0009 20.6109 18.8059 18.8059C20.6109 17.0009 21.625 14.5527 21.625 12C21.625 9.44729 20.6109 6.99914 18.8059 5.1941C17.0009 3.38906 14.5527 2.375 12 2.375C9.44729 2.375 6.99914 3.38906 5.1941 5.1941C3.38906 6.99914 2.375 9.44729 2.375 12Z" stroke="#E3000F" stroke-width="1.375" stroke-linejoin="round"/>
<path d="M7.875 12C7.875 9.44729 8.3096 6.99914 9.08318 5.1941C9.85677 3.38906 10.906 2.375 12 2.375C13.094 2.375 14.1432 3.38906 14.9168 5.1941C15.6904 6.99914 16.125 9.44729 16.125 12C16.125 14.5527 15.6904 17.0009 14.9168 18.8059C14.1432 20.6109 13.094 21.625 12 21.625C10.906 21.625 9.85677 20.6109 9.08318 18.8059C8.3096 17.0009 7.875 14.5527 7.875 12Z" stroke="#E3000F" stroke-width="1.375" stroke-linejoin="round"/>
<path d="M3.0625 15.2077H20.9375M3.0625 8.79102H20.9375" stroke="#E3000F" stroke-width="1.375" stroke-linecap="round"/>
</g>
<defs>
<clipPath id="clip0_1703_37571">
<rect width="22" height="22" fill="white" transform="translate(1 1)"/>
</clipPath>
</defs>
</svg>
